<?xml version="1.0" encoding="UTF-8" standalone="no"?>
<!-- Created with Inkscape (http://www.inkscape.org/) -->

<svg
   xmlns:dc="http://purl.org/dc/elements/1.1/"
   xmlns:cc="http://creativecommons.org/ns#"
   xmlns:rdf="http://www.w3.org/1999/02/22-rdf-syntax-ns#"
   xmlns:svg="http://www.w3.org/2000/svg"
   xmlns="http://www.w3.org/2000/svg"
   xmlns:sodipodi="http://sodipodi.sourceforge.net/DTD/sodipodi-0.dtd"
   xmlns:inkscape="http://www.inkscape.org/namespaces/inkscape"
   id="svg3406"
   version="1.1"
   inkscape:version="0.91 r13725"
   width="370.9007"
   height="698.64563"
   viewBox="0 0 370.9007 698.64563"
   sodipodi:docname="silhouette-danse-42.svg">
  <title
     id="title3340">Silhouette Danse 42</title>
  <metadata
     id="metadata3412">
    <rdf:RDF>
      <cc:Work
         rdf:about="">
        <dc:format>image/svg+xml</dc:format>
        <dc:type
           rdf:resource="http://purl.org/dc/dcmitype/StillImage" />
        <dc:title>Silhouette Danse 42</dc:title>
        <cc:license
           rdf:resource="http://creativecommons.org/publicdomain/zero/1.0/" />
        <dc:date>2017-03-01</dc:date>
        <dc:creator>
          <cc:Agent>
            <dc:title>JLouis</dc:title>
          </cc:Agent>
        </dc:creator>
        <dc:rights>
          <cc:Agent>
            <dc:title>Domaine pubic</dc:title>
          </cc:Agent>
        </dc:rights>
        <dc:publisher>
          <cc:Agent>
            <dc:title>inkscape</dc:title>
          </cc:Agent>
        </dc:publisher>
        <dc:subject>
          <rdf:Bag>
            <rdf:li>Silhouette</rdf:li>
            <rdf:li>dance</rdf:li>
            <rdf:li>dancer</rdf:li>
            <rdf:li>woman</rdf:li>
            <rdf:li>danse</rdf:li>
            <rdf:li>danseuse</rdf:li>
            <rdf:li>femme</rdf:li>
          </rdf:Bag>
        </dc:subject>
        <dc:description>Silhouette of dancer - Silhouette de danseuse.</dc:description>
      </cc:Work>
      <cc:License
         rdf:about="http://creativecommons.org/publicdomain/zero/1.0/">
        <cc:permits
           rdf:resource="http://creativecommons.org/ns#Reproduction" />
        <cc:permits
           rdf:resource="http://creativecommons.org/ns#Distribution" />
        <cc:permits
           rdf:resource="http://creativecommons.org/ns#DerivativeWorks" />
      </cc:License>
    </rdf:RDF>
  </metadata>
  <defs
     id="defs3410" />
  <sodipodi:namedview
     pagecolor="#ffffff"
     bordercolor="#666666"
     borderopacity="1"
     objecttolerance="10"
     gridtolerance="10"
     guidetolerance="10"
     inkscape:pageopacity="0"
     inkscape:pageshadow="2"
     inkscape:window-width="1235"
     inkscape:window-height="756"
     id="namedview3408"
     showgrid="false"
     fit-margin-top="0"
     fit-margin-left="0"
     fit-margin-right="0"
     fit-margin-bottom="0"
     inkscape:zoom="0.72552167"
     inkscape:cx="195.40402"
     inkscape:cy="352.39431"
     inkscape:window-x="0"
     inkscape:window-y="0"
     inkscape:window-maximized="1"
     inkscape:current-layer="svg3406" />
  <g
     id="g3416"
     transform="translate(-27.849298,-36.232059)">
    <path
       style="fill:#e6d8e4"
       d="m 36.570204,733.7815 c -5.520011,-1.31044 -7.616663,-3.30037 -8.513332,-8.08004 -1.468682,-7.82875 4.777266,-17.7656 21.262109,-33.82646 11.046268,-10.76216 13.135923,-13.45581 15.030614,-19.375 3.460597,-10.81122 2.985629,-15.29315 -2.304884,-21.74952 -7.625952,-9.30647 -10.435747,-16.43974 -13.343161,-33.87449 -1.484549,-8.90233 -4.598384,-21.43268 -6.919633,-27.84523 -5.022435,-13.8747 -8.657113,-42.31202 -7.669308,-60.00383 1.538091,-27.54758 11.866649,-69.73244 24.718402,-100.95722 2.817153,-6.84459 5.462964,-13.28846 5.879581,-14.31971 0.665047,-1.64619 0.485728,-1.65371 -1.469432,-0.0616 -1.990184,1.62062 -2.46015,1.50419 -4.420883,-1.09522 -1.206681,-1.59973 -3.095731,-5.7285 -4.197891,-9.17504 -1.816381,-5.67996 -1.82602,-7.20427 -0.102987,-16.28734 1.178943,-6.21488 3.007966,-11.48978 4.81565,-13.88835 2.845265,-3.77528 4.248107,-6.23301 17.547433,-30.74243 3.543993,-6.53125 8.652629,-15.8125 11.352527,-20.625 5.365617,-9.56409 8.432326,-15.74155 17.721141,-35.69685 3.37859,-7.25827 8.96687,-17.38327 12.41841,-22.5 5.0277,-7.45333 7.6601,-13.52848 13.23881,-30.55315 5.96086,-18.19084 7.16526,-23.49939 8.36623,-36.875 0.77162,-8.59375 2.53025,-20.792 3.90809,-27.10723 2.10528,-9.64937 3.242,-12.30225 7.12124,-16.61949 3.53047,-3.9291 5.79197,-5.2943 9.61607,-5.80495 2.75,-0.36721 6.292,-1.29448 7.87112,-2.0606 2.14781,-1.04201 4.19468,-0.99825 8.125,0.17374 9.55848,2.85028 10.86707,2.97671 14.63868,1.41446 2.05712,-0.85207 3.7402,-1.965 3.7402,-2.47315 0,-0.50816 -1.40625,-2.99615 -3.125,-5.52886 -3.44627,-5.07836 -3.88928,-8.30404 -1.636,-11.91211 1.16135,-1.85962 1.11778,-4.12513 -0.19802,-10.29554 -2.36348,-11.08351 -2.97295,-24.789886 -1.36745,-30.752254 1.75004,-6.499179 10.28415,-19.333985 17.68472,-26.596814 6.11237,-5.9986 12.20269,-8.556795 22.26058,-9.350391 4.68335,-0.36953 6.40205,-1.22113 9.22157,-4.569205 1.90598,-2.263265 4.15598,-4.155467 5,-4.204895 0.84404,-0.04942 3.62592,-1.040009 6.18195,-2.201291 6.51258,-2.958848 18.01289,-2.717909 26.77652,0.560985 10.12945,3.789912 15.10001,6.865627 22.95113,14.201844 3.78125,3.533261 7.71875,6.947605 8.75,7.58743 C 312.2986,63.688906 320.7164,77.5 317.73241,77.5 c -0.65233,0 -2.03177,2.390625 -3.06543,5.3125 -4.30579,12.171417 -5.05253,14.163639 -6.08453,16.233039 -0.59535,1.193791 -1.08245,3.303171 -1.08245,4.687501 0,1.38433 -0.50748,2.51696 -1.12771,2.51696 -1.64479,0 -3.87229,7.15401 -3.87229,12.43653 0,2.50991 -0.58488,5.14835 -1.29973,5.8632 -0.71486,0.71486 -2.26173,3.08115 -3.4375,5.25842 -2.47236,4.57829 -9.43065,13.93234 -14.1394,19.00765 -2.8503,3.07219 -3.77598,3.37861 -7.5,2.4827 -2.33661,-0.56214 -6.43942,-1.96969 -9.11737,-3.12789 -3.97531,-1.71931 -5.06159,-1.80204 -5.91835,-0.45072 -1.47238,2.32229 -1.33646,5.72406 0.35655,8.92478 2.72709,5.15568 16.32376,20.77191 18.75839,21.54463 4.0965,1.30018 9.79741,10.36126 9.79741,15.5721 0,4.51059 1.51977,7.94004 11.74505,26.5032 2.54171,4.61428 5.93067,12.20803 7.53104,16.875 1.60036,4.66696 4.99597,13.82915 7.54581,20.3604 2.54984,6.53125 7.16109,18.34375 10.24724,26.25 3.08615,7.90625 6.09126,15.78125 6.67803,17.5 3.7272,10.91752 9.86408,25.44811 13.46215,31.875 12.89605,23.03495 28.08923,63.281 29.72869,78.75 0.76661,7.23326 0.63311,7.71116 -3.75382,13.4375 -2.50179,3.26562 -4.94482,5.95621 -5.42895,5.97909 -0.48413,0.0229 -2.24383,1.17674 -3.91044,2.56415 l -3.0302,2.52256 6.48255,5.67078 c 3.5654,3.11892 7.17891,6.88693 8.03001,8.37335 1.08939,1.90255 1.78034,14.35853 2.33411,42.07757 0.8328,41.68574 2.15189,60.12768 6.2586,87.5 1.39248,9.28125 2.94327,20.08897 3.44619,24.01716 0.50293,3.92819 1.86503,8.19259 3.0269,9.47644 2.56481,2.83409 1.62828,4.0064 -3.20061,4.0064 -3.45134,0 -3.59489,0.20987 -2.75599,4.02938 0.48675,2.21615 2.35956,6.23203 4.16181,8.92417 6.00975,8.97718 6.63733,10.939 7.87697,24.62395 1.42537,15.73539 1.15867,16.94923 -8.90904,40.5475 -9.04852,21.20935 -10.01982,22.91881 -14.20988,25.00909 -5.07908,2.53377 -11.27042,2.36131 -13.7541,-0.38313 -4.36758,-4.82612 -7.0741,-32.99325 -4.07746,-42.43482 0.6865,-2.16297 0.0774,-2.44258 -5.77256,-2.64963 -7.39081,-0.26158 -10.41045,-1.88484 -17.01138,-9.1447 -7.2599,-7.98462 -9.34738,-11.77526 -7.92557,-14.39189 2.37817,-4.37666 19.90716,-20.23034 24.4813,-22.14154 3.65672,-1.52788 4.54927,-2.5252 4.2314,-4.72812 -0.33075,-2.29213 -1.25085,-2.8204 -5.14089,-2.95156 -5.59042,-0.18851 -8.20869,-2.1362 -6.17147,-4.59089 0.99526,-1.19921 0.7045,-3.97657 -1.08515,-10.36547 -1.34459,-4.80004 -3.87243,-15.75859 -5.61742,-24.35234 -2.97527,-14.65266 -5.14553,-23.4579 -9.85896,-40 -1.07741,-3.78125 -2.31567,-14.6428 -2.75168,-24.13679 l -0.79277,-17.26177 -5.39227,-3.70999 c -5.83139,-4.01209 -11.1986,-10.36851 -11.90239,-14.09605 -0.29444,-1.55943 -2.93024,-3.23025 -7.97279,-5.0539 -4.14311,-1.49837 -12.86186,-5.57783 -19.375,-9.06544 -6.51313,-3.48762 -14.93581,-7.31942 -18.71706,-8.51513 -8.96895,-2.83617 -24.57041,-10.77767 -34.4178,-17.51945 -15.31071,-10.48213 -36.22747,-16.52245 -52.82995,-15.25619 -13.69664,1.04464 -18.36499,2.75654 -25.61092,9.39165 -10.99207,10.06542 -13.32412,12.8203 -18.05352,21.32676 -2.52926,4.54921 -9.32101,16.1279 -15.09279,25.7304 -5.93759,9.87838 -11.58236,21.00473 -13.000409,25.625 -1.378451,4.49125 -2.904913,8.7284 -3.392138,9.4159 -1.165825,1.64504 -7.38023,18.21734 -7.73412,20.625 -0.151578,1.03125 0.182458,3.51828 0.742302,5.52673 0.852173,3.05717 0.504505,4.09332 -2.135409,6.36407 l -3.153307,2.71236 4.834764,7.3526 c 2.65912,4.04393 5.158851,9.33634 5.554958,11.76091 0.396108,2.42458 1.784672,9.47083 3.085698,15.65833 1.81621,8.63765 2.487731,18.21629 2.891861,41.25 0.50761,28.93141 0.64274,30.2774 3.79357,37.78766 2.95008,7.03175 3.26721,9.34859 3.26721,23.86877 0,17.96781 -0.41216,18.93594 -9.373121,22.01657 C 93.346387,715.94146 81.25,714.53404 81.25,712.33436 c 0,-4.07551 -6.898375,2.47001 -7.904389,7.50008 -2.01356,10.06781 -21.687095,17.52898 -36.775407,13.94706 z M 344.04259,415.44286 c 5.74135,-1.61094 7.73331,-2.834 9.18368,-5.6387 1.73387,-3.35291 1.60012,-4.15925 -2.09503,-12.63036 -5.39557,-12.36935 -8.20147,-17.10906 -24.25608,-40.97335 -12.06636,-17.93598 -14.43651,-22.32903 -17.89321,-33.16479 -2.47376,-7.7545 -6.13345,-15.79276 -9.65224,-21.20045 -5.58527,-8.5835 -11.46847,-20.06235 -21.92206,-42.77271 -2.92723,-6.35938 -5.82935,-11.5625 -6.44918,-11.5625 -0.61981,0 -0.74287,1.21009 -0.27346,2.68909 0.6543,2.0615 0.42065,2.523 -1.00112,1.97741 -2.42039,-0.92879 -11.13188,8.04601 -20.27053,20.88325 -5.49204,7.71476 -6.89655,10.59707 -6.30747,12.94412 1.57861,6.2897 -0.744,14.0784 -6.19324,20.7686 -3.97963,4.8859 -5.02414,7.05097 -4.29784,8.90855 2.77,7.0846 0.19865,12.57879 -6.51549,13.92162 -4.3003,0.86006 -4.44367,1.86655 -0.94078,6.60445 2.06071,2.78727 2.47276,4.58611 1.8324,7.99953 -1.08407,5.77852 0.19178,10.5342 3.07126,11.44812 1.27252,0.40388 3.51247,2.67405 4.97769,5.0448 1.4652,2.37075 3.57807,4.31046 4.69526,4.31046 1.11717,0 5.14942,2.17587 8.96055,4.83529 3.81111,2.6594 8.18157,5.22431 9.71212,5.69981 7.80385,2.4244 41.81363,20.67114 57.09964,30.63476 9.56036,6.23158 18.24221,11.33014 19.293,11.33014 1.05079,0 5.20975,-0.92571 9.24213,-2.05714 z M 395.784,631.70959 c -2.33161,-3.19898 -2.33036,-3.20615 0.3125,-1.79174 1.45942,0.78106 2.6535,2.24406 2.6535,3.25113 0,2.41917 -0.21681,2.3125 -2.966,-1.45939 z"
       id="path3430"
       inkscape:connector-curvature="0" />
    <path
       style="fill:#cda9c9"
       d="m 36.459467,733.5222 c -4.44419,-0.99304 -5.725301,-1.95145 -7.142586,-5.3435 -3.394202,-8.12346 0.957639,-16.04569 18.946288,-34.49036 13.767066,-14.11608 17.68531,-20.70238 18.568871,-31.21302 0.449613,-5.34847 0.04879,-6.39137 -4.604206,-11.97941 C 54.701244,641.4568 51.687666,633.72051 48.644272,615.625 47.14112,606.6875 44.05288,594.2383 41.781517,587.96011 36.957172,574.62532 33.085106,544.7363 34.124737,528.85635 35.919379,501.44389 46.47139,459.152 59.506317,427.12836 c 6.158357,-15.12959 6.27943,-15.58659 3.523414,-13.2993 -2.159254,1.79203 -2.509586,1.48689 -6.267322,-5.45876 -4.836325,-8.93927 -3.059933,-25.85544 3.832426,-36.4953 7.986456,-12.32884 34.736312,-62.00561 42.185015,-78.34119 7.59139,-16.6485 10.05638,-21.16682 17.95356,-32.90881 4.61355,-6.85969 15.79728,-38.91099 17.88276,-51.25 0.69719,-4.125 1.62643,-12.28125 2.06498,-18.125 1.18672,-15.81359 5.10292,-31.48171 9.32581,-37.31124 3.38698,-4.67559 10.00134,-8.2451 13.98024,-7.5446 0.90079,0.1586 3.16811,-0.45421 5.0385,-1.36179 2.89417,-1.40435 4.20369,-1.34346 8.79179,0.40875 6.18453,2.36189 11.28677,2.62622 14.76468,0.7649 3.21239,-1.71922 3.05184,-3.44266 -0.85657,-9.1944 -3.05678,-4.49844 -3.16771,-5.14198 -1.66916,-9.68263 1.29841,-3.93423 1.30425,-6.23443 0.0305,-12.03396 C 185.8756,96.120207 187.14695,85.26661 195.02659,73.125 205.14578,57.532494 215.9419,50 228.17104,50 c 4.49888,0 5.89918,-0.644675 8.74409,-4.025641 3.13328,-3.723704 6.43662,-5.465866 16.20162,-8.544636 13.93865,-4.394669 33.3365,3.483841 50.94591,20.691871 14.18943,13.866006 14.10142,13.675145 10.89022,23.61487 -1.46532,4.535628 -3.17915,8.564856 -3.80854,8.953839 C 310.51495,91.079285 310,92.778227 310,94.465733 c 0,2.78404 -0.84601,5.041828 -3.94726,10.534267 -2.73978,4.85223 -3.86554,8.52564 -4.02232,13.125 -0.18823,5.52173 -2.63593,10.30641 -10.16948,19.8789 -2.75774,3.5041 -6.00508,7.91797 -7.21632,9.8086 -2.71806,4.24262 -7.76458,4.51901 -15.81647,0.86624 C 262.16086,145.65409 260,146.22781 260,151.02266 c 0,5.46898 14.81054,25.45527 20.10954,27.1371 3.89036,1.23476 9.89046,11.05549 9.89046,16.18834 0,4.99915 1.92639,9.46646 9.74236,22.5926 2.88713,4.84864 6.87228,13.56739 8.8559,19.375 1.98363,5.80761 8.08951,21.8093 13.56864,35.5593 5.47914,13.75 10.64724,27.25 11.48468,30 0.83743,2.75 2.02816,6.125 2.64607,7.5 0.61791,1.375 2.20671,5.43875 3.53069,9.03056 1.32396,3.5918 5.58048,12.21173 9.45895,19.15539 3.87845,6.94366 8.93477,17.22366 11.23626,22.84445 6.81079,16.63359 15.38759,43.45296 16.26578,50.86256 0.74811,6.31204 0.48927,7.38769 -3.07129,12.76315 -2.13854,3.2286 -5.8187,7.06328 -8.17815,8.52149 -2.35944,1.45821 -4.28989,2.98212 -4.28989,3.38647 0,0.40435 3.04251,3.59285 6.76112,7.08555 4.66012,4.377 7.18279,7.90413 8.11804,11.35038 0.80052,2.94979 1.36345,17.55752 1.37289,35.625 0.0172,32.96007 2.98501,72.16094 7.49955,99.05942 1.37411,8.1873 2.4984,16.48935 2.4984,18.449 0,1.95965 0.87961,4.44262 1.9547,5.5177 2.1308,2.1308 1.238,5.00717 -1.25699,4.04974 -0.85218,-0.32701 -2.26166,-0.15437 -3.13218,0.38364 -2.4455,1.5114 -0.58985,7.37136 4.89192,15.44823 5.64906,8.32333 6.77814,14.2885 6.10573,32.25783 -0.35932,9.60209 -1.04299,12.94673 -3.79879,18.58444 -1.84835,3.78125 -5.79211,12.76306 -8.76394,19.9596 -5.8394,14.14062 -10.15385,18.7904 -17.4353,18.7904 -5.08152,0 -8.10581,-3.68325 -9.91519,-12.07566 -1.70277,-7.89788 -2.15925,-26.52244 -0.78032,-31.83759 0.84303,-3.24954 0.76206,-3.29482 -6.87846,-3.8475 -7.71229,-0.55785 -7.75117,-0.58036 -15.61137,-9.04171 -10.60585,-11.417 -10.52451,-12.73495 1.49352,-24.20168 5.15533,-4.91883 11.62408,-10.0916 14.375,-11.49501 3.8899,-1.98448 5.00167,-3.27076 5.00167,-5.78676 0,-2.80636 -0.40466,-3.13355 -3.05337,-2.46877 -1.67935,0.42149 -4.45167,0.12924 -6.1607,-0.64943 -2.48294,-1.13132 -2.84738,-1.83203 -1.8137,-3.48723 0.94121,-1.5071 0.59498,-4.44326 -1.27084,-10.77755 -1.41046,-4.78836 -4.25836,-16.9101 -6.32866,-26.9372 -2.07032,-10.0271 -5.4869,-24.36619 -7.59243,-31.86465 -2.99907,-10.68065 -4.00151,-17.24639 -4.62821,-30.31395 l -0.79998,-16.68039 -6.80637,-5.02816 c -4.53359,-3.34916 -7.59144,-6.80295 -9.15746,-10.34319 -2.10808,-4.76566 -3.16054,-5.60745 -10.18218,-8.14403 -4.30711,-1.55597 -12.9486,-5.57427 -19.20332,-8.92959 -6.25474,-3.35531 -14.96134,-7.27881 -19.34803,-8.71889 -10.09051,-3.31253 -17.63094,-7.13349 -31.77975,-16.10368 -19.78559,-12.54385 -35.14351,-17.07858 -54.10486,-15.97548 -5.99233,0.34861 -13.02089,1.52869 -15.61901,2.62239 -6.42073,2.70284 -20.16578,15.05737 -24.49832,22.01994 -14.43546,23.19838 -29.55554,50.26141 -32.009115,57.29228 -1.611959,4.61917 -4.432489,12.05474 -6.267845,16.52349 -5.332081,12.98263 -5.81579,15.2211 -4.159264,19.24799 1.36354,3.31465 1.19695,3.85695 -1.957508,6.37222 l -3.447883,2.74925 5.03649,7.18983 c 3.353954,4.78792 5.303819,9.13175 5.83671,13.00276 0.440121,3.19713 1.664783,8.9067 2.721469,12.68795 1.37523,4.92113 2.177921,16.46674 2.824392,40.625 0.875034,32.6996 1.005184,33.98343 4.181774,41.25 2.91386,6.66556 3.28193,9.12273 3.3083,22.08526 0.0163,8.0219 -0.32096,15.49899 -0.7495,16.61575 -0.42854,1.11677 -3.06625,3.19727 -5.86157,4.62333 -3.952219,2.01627 -6.449055,2.43099 -11.228177,1.86497 -3.380175,-0.40032 -6.911055,-1.363 -7.8464,-2.13927 -2.746805,-2.27964 -4.486824,-0.85289 -8.564084,7.02226 -3.129006,6.04361 -4.893766,7.92981 -9.470599,10.12229 -11.546994,5.53142 -16.811997,6.29399 -27.290532,3.95261 z M 343.75,415.65046 c 6.96459,-1.84356 11.25,-5.40037 11.25,-9.33726 0,-4.53938 -12.81866,-28.06791 -25.43853,-46.6922 -15.38295,-22.702 -17.10802,-25.883 -20.80891,-38.371 -1.72741,-5.82883 -5.59695,-13.86681 -10.22989,-21.25 -7.45646,-11.88283 -10.95812,-18.79121 -21.04089,-41.51139 -2.96224,-6.67502 -5.89582,-11.82125 -6.51905,-11.43606 -0.62324,0.38517 -0.83122,1.48717 -0.46218,2.44889 0.37126,0.9675 -0.085,1.74856 -1.02146,1.74856 -2.3626,0 -15.41834,14.22253 -21.72438,23.66588 -4.7723,7.14659 -5.25471,8.58582 -5.25471,15.67713 0,8.07854 -2.89405,14.49539 -8.84636,19.6146 -1.98525,1.70739 -2.1947,2.67918 -1.16258,5.39386 2.80096,7.36712 0.58886,12.02912 -6.55356,13.81166 -4.13605,1.03223 -4.19999,1.65165 -0.77049,7.46422 2.17837,3.69204 2.4155,5.0723 1.29425,7.53316 -1.8166,3.987 0.33205,9.10674 5.72624,13.64434 2.23437,1.87956 4.0625,4.21114 4.0625,5.18126 0,0.97014 1.01075,1.76389 2.24611,1.76389 1.23536,0 6.10003,2.53125 10.81034,5.625 4.71032,3.09375 9.06707,5.625 9.68166,5.625 2.66098,0 39.57723,19.41768 51.6196,27.15154 24.89044,15.98516 22.44376,15.0809 33.14229,12.24892 z"
       id="path3428"
       inkscape:connector-curvature="0" />
    <path
       style="fill:#c38eba"
       d="m 36.875,733.59725 c -6.217949,-1.43214 -8.125,-3.88875 -8.125,-10.46644 0,-7.23036 5.148469,-14.88773 20.594744,-30.63081 11.245185,-11.46126 13.212062,-14.11595 15.516407,-20.94247 3.881656,-11.49924 3.535118,-13.78104 -3.406544,-22.43052 -7.809467,-9.73078 -9.557456,-14.33811 -12.786785,-33.70327 -1.465998,-8.79109 -4.550415,-21.19109 -6.854258,-27.55555 -4.786378,-13.22259 -8.653045,-42.27671 -7.741248,-58.16774 0.63482,-11.06377 5.990355,-41.02744 10.237519,-57.27784 3.867115,-14.79626 12.088001,-38.79673 16.998969,-49.62763 4.069716,-8.97558 4.585901,-11.34363 2.005936,-9.20245 -3.444857,2.85898 -9.397921,-8.15434 -9.509874,-17.5935 -0.08172,-6.89108 2.448168,-17.43363 5.076965,-21.15665 5.526155,-7.82638 32.439575,-57.46212 43.027319,-79.35419 6.35386,-13.13774 14.15771,-27.76274 17.3419,-32.5 4.40965,-6.56043 7.40683,-13.52869 12.57587,-29.23819 6.02667,-18.31593 7.00507,-22.79414 8.73917,-40 3.43747,-34.10699 8.663,-45.79315 20.8733,-46.68031 2.30208,-0.16727 5.41426,-0.98262 6.91593,-1.8119 3.55318,-1.9622 4.56733,-1.90798 10.12233,0.54126 6.83007,3.01141 16.52235,1.58719 16.52235,-2.42786 0,-0.84747 -1.48705,-3.72924 -3.30455,-6.40393 -2.93514,-4.31945 -3.14474,-5.30501 -1.875,-8.81641 1.92136,-5.31342 1.79966,-10.28349 -0.43193,-17.63969 -2.34391,-7.72649 -2.40368,-18.402083 -0.14506,-25.90693 1.95623,-6.500041 10.56448,-19.109863 17.82645,-26.113144 C 212.58849,53.169101 220.45714,50 228.15266,50 c 4.4867,0 5.92287,-0.665712 9.00213,-4.172797 2.01506,-2.295039 4.74521,-4.508068 6.06698,-4.917843 1.32178,-0.409775 4.65323,-1.601076 7.40323,-2.647336 14.53195,-5.5288 34.17279,1.44219 51.8315,18.396202 12.54146,12.040977 15.87625,16.72127 14.02561,19.684615 C 315.66695,77.648121 315,79.589869 315,80.657836 c 0,1.067968 -1.125,4.146941 -2.5,6.842164 -1.375,2.695222 -2.5,6.055446 -2.5,7.467164 0,2.323422 -0.8184,4.41504 -3.92564,10.032836 -3.22101,5.82351 -4.77349,10.69111 -4.09331,12.83413 0.92855,2.92561 -4.14225,12.90729 -10.62549,20.91587 -2.5045,3.09375 -5.53454,7.17187 -6.73342,9.0625 -2.69103,4.24375 -7.73864,4.52059 -15.79399,0.86624 -3.05078,-1.38399 -6.28515,-2.23304 -7.1875,-1.88678 -2.21034,0.84819 -2.07361,6.24494 0.27319,10.78314 2.81758,5.44861 16.41857,20.87389 19.17722,21.74945 3.60736,1.14494 8.90894,9.99444 8.90894,14.871 0,5.33147 2.52865,11.43186 8.95895,21.61351 2.76879,4.38406 7.1728,14.01113 9.78671,21.39348 2.61391,7.38235 9.02479,24.03203 14.2464,36.9993 5.22162,12.96725 10.29721,26.186 11.2791,29.375 3.31115,10.7539 7.99159,21.31909 15.43536,34.84235 10.87867,19.76348 25.33657,58.87288 27.15506,73.45581 0.6983,5.59994 0.36974,6.86756 -3.15891,12.1875 -2.16605,3.26562 -4.30713,5.95773 -4.75797,5.98245 -0.45084,0.0248 -2.49096,1.41067 -4.53363,3.07987 l -3.71392,3.03492 7.03755,6.60764 c 4.90986,4.60991 7.44779,8.11929 8.39446,11.60762 0.79834,2.94177 1.35977,17.35704 1.36387,35.01861 0.008,32.60244 2.29581,65.32401 6.42356,91.85639 1.44392,9.28125 2.8984,19.96875 3.23219,23.75 0.35162,3.98345 1.39435,7.49719 2.47921,8.35434 2.4107,1.90467 0.86062,4.46921 -2.12799,3.52066 -5.45325,-1.73079 -4.44937,6.26059 1.95624,15.5727 5.35524,7.78515 6.7248,13.73301 6.7632,29.37177 0.0285,11.59209 -0.26675,13.09044 -4.30995,21.875 -2.38729,5.18679 -6.47589,14.75893 -9.08578,21.27142 -5.14658,12.84233 -9.63083,17.53411 -16.75856,17.53411 -5.07894,0 -8.10379,-3.68046 -9.9246,-12.07566 -1.68544,-7.77109 -2.0569,-28.06799 -0.59781,-32.66515 0.81684,-2.57363 0.4876,-2.75919 -4.89558,-2.75919 -7.62901,0 -11.59205,-2.22956 -19.26477,-10.83816 -8.84814,-9.9274 -8.63036,-11.57778 2.99094,-22.66598 5.15533,-4.91883 11.62408,-10.0916 14.375,-11.49501 3.8899,-1.98448 5.00167,-3.27076 5.00167,-5.78676 0,-2.80636 -0.40466,-3.13355 -3.05337,-2.46877 -1.67935,0.42149 -4.45167,0.12924 -6.1607,-0.64943 -2.48294,-1.13132 -2.84738,-1.83203 -1.8137,-3.48723 0.94162,-1.50777 0.59233,-4.44042 -1.28364,-10.77755 -1.4175,-4.78836 -4.03783,-16.01861 -5.82296,-24.95611 -1.78514,-8.9375 -5.1745,-23.21234 -7.53194,-31.72186 -3.45079,-12.45622 -4.45076,-18.75039 -5.13039,-32.29244 l -0.84415,-16.82058 -6.80989,-5.03076 c -4.57943,-3.38304 -7.59202,-6.7989 -9.19786,-10.42915 -1.90599,-4.30881 -3.33037,-5.6957 -7.05717,-6.87141 -2.56808,-0.81015 -11.70048,-4.98951 -20.29423,-9.28745 -8.59375,-4.29795 -18.71875,-8.81628 -22.5,-10.04075 -9.19174,-2.97651 -16.75414,-6.85865 -31.80117,-16.32506 -6.9156,-4.35075 -17.07383,-9.48069 -22.57383,-11.39985 -8.97152,-3.13052 -11.67126,-3.48839 -26.25,-3.4797 -14.21582,0.009 -16.8759,0.34523 -21.25,2.69023 -6.58997,3.53297 -22.17907,18.5993 -24.97115,24.13378 -1.21392,2.40625 -7.77246,13.72354 -14.57453,25.14952 -6.80206,11.42599 -13.71718,24.64474 -15.366925,29.375 -1.649744,4.73027 -4.501189,12.25673 -6.336545,16.72548 -5.332081,12.98262 -5.81579,15.2211 -4.159264,19.24799 1.364715,3.31751 1.197514,3.8565 -1.983076,6.39261 l -3.47345,2.76964 4.663486,6.49122 c 4.663003,6.49056 5.112553,7.99828 10.609254,35.58165 0.66946,3.35946 1.2172,18.64509 1.2172,33.96805 l 0,27.85994 3.75,9.36519 c 3.40647,8.50726 3.75,10.68221 3.75,23.74221 0,7.90736 -0.35063,15.29075 -0.77917,16.40751 -0.42854,1.11677 -3.06625,3.19726 -5.86157,4.62333 -3.952219,2.01627 -6.449055,2.43099 -11.228177,1.86497 -3.380175,-0.40032 -6.911056,-1.363 -7.8464,-2.13927 -2.746805,-2.27964 -4.486824,-0.85289 -8.564084,7.02226 -3.129006,6.04361 -4.893766,7.92981 -9.470599,10.12229 -11.445011,5.48257 -16.96588,6.30997 -26.875,4.02766 z M 348.55364,414.10687 c 7.92876,-3.88203 7.99562,-7.13774 0.45784,-22.29413 -3.57902,-7.19641 -12.43707,-21.86492 -19.68454,-32.59668 C 313.8747,336.33508 312.422,333.652 308.77101,321.25 c -1.51794,-5.15625 -5.0601,-13.03125 -7.87146,-17.5 -8.88966,-14.13036 -12.81168,-21.59829 -20.87961,-39.7569 -4.32105,-9.72546 -8.38159,-17.35811 -9.02341,-16.96144 -0.64183,0.39666 -0.86502,1.50806 -0.49598,2.46978 0.36905,0.96171 -0.0695,1.74856 -0.9745,1.74856 -2.25326,0 -14.00701,12.59297 -21.1487,22.65874 -5.54701,7.81813 -5.87735,8.73925 -5.87735,16.38806 0,8.47262 -2.81944,14.73964 -9.0213,20.05247 -2.21752,1.89964 -2.3872,2.68358 -1.16259,5.37132 3.13999,6.89153 0.8072,11.89916 -6.37861,13.69254 -4.13605,1.03223 -4.19999,1.65165 -0.77049,7.46422 2.17837,3.69204 2.4155,5.0723 1.29425,7.53316 -1.8166,3.987 0.33205,9.10674 5.72624,13.64434 2.23438,1.87956 4.0625,4.21114 4.0625,5.18126 0,0.97014 1.0465,1.76389 2.32556,1.76389 1.27907,0 4.51344,1.50744 7.1875,3.34986 2.67407,1.84243 16.39319,9.11529 30.48694,16.1619 14.09375,7.04663 32.375,17.37142 40.625,22.94398 14.60071,9.86222 15.16131,10.11531 21.0601,9.50747 3.33306,-0.34346 8.1114,-1.62881 10.61854,-2.85633 z"
       id="path3426"
       inkscape:connector-curvature="0" />
    <path
       style="fill:#b888b5"
       d="m 36.875,733.59725 c -6.22923,-1.43474 -8.125,-3.8887 -8.125,-10.51736 0,-7.19587 6.667327,-16.95437 21.730362,-31.8052 6.610802,-6.51768 12.023103,-12.42393 12.027339,-13.125 0.0043,-0.70108 0.851403,-2.89245 1.882594,-4.86972 1.031191,-1.97726 2.22668,-6.58817 2.656643,-10.24647 0.763445,-6.49574 0.656739,-6.79203 -4.557505,-12.65499 -7.743405,-8.70676 -10.790688,-16.36031 -13.674998,-34.34609 -1.46479,-9.13403 -4.37184,-20.90142 -6.865146,-27.7893 -3.414144,-9.43171 -4.753269,-15.89606 -6.361119,-30.70696 -2.438979,-22.46694 -2.066115,-31.19181 2.352013,-55.03616 5.638321,-30.42966 14.077603,-59.21413 23.368621,-79.70503 4.069716,-8.97557 4.585901,-11.34362 2.005936,-9.20245 -3.444857,2.85899 -9.397921,-8.15433 -9.509874,-17.5935 -0.08172,-6.89107 2.448168,-17.43362 5.076965,-21.15665 5.521715,-7.82008 32.412039,-57.39915 42.626349,-78.59237 6.12995,-12.71875 13.90139,-27.34375 17.26987,-32.5 4.34519,-6.65131 7.92528,-14.65873 12.32276,-27.56176 6.63415,-19.46579 8.27067,-26.95225 9.55012,-43.68824 1.13782,-14.88353 4.01243,-28.16879 7.64698,-35.34123 2.44509,-4.82515 4.27158,-6.63302 8.66455,-8.57623 3.06149,-1.35425 6.12139,-2.11924 6.79975,-1.69999 0.67838,0.41925 2.48455,-0.114 4.01373,-1.18514 3.50135,-2.45244 4.93991,-2.43877 10.70171,0.10163 6.98614,3.08022 16.52235,2.01643 16.52235,-1.84312 0,-1.16908 -1.48705,-4.31398 -3.30455,-6.98867 -2.93514,-4.31945 -3.14474,-5.30501 -1.875,-8.81641 1.92136,-5.31342 1.79966,-10.28349 -0.43192,-17.63969 -2.34392,-7.7265 -2.40369,-18.402085 -0.14507,-25.906933 1.95623,-6.500041 10.56448,-19.109862 17.82645,-26.113143 C 212.58849,53.169101 220.45714,50 228.15266,50 c 4.4867,0 5.92287,-0.665712 9.00213,-4.172797 2.01506,-2.295039 4.74521,-4.508068 6.06698,-4.917843 1.32178,-0.409775 4.65323,-1.601076 7.40323,-2.647336 10.47084,-3.983717 23.72865,-1.436719 37.90049,7.281177 7.31866,4.502119 20.17631,16.282746 25.75712,23.599572 3.48084,4.563607 3.23614,6.817479 -1.92517,17.732227 -1.30042,2.75 -2.36283,6.15876 -2.36092,7.575023 0.002,1.416263 -2.01366,6.669547 -4.47906,11.673957 -2.95566,5.99959 -4.2367,10.07841 -3.76084,11.97442 0.84503,3.36683 -3.62241,12.22141 -10.41943,20.6516 -2.4944,3.09375 -5.51617,7.17187 -6.71505,9.0625 -2.7298,4.3049 -6.48837,4.40999 -16.11527,0.45056 -5.93863,-2.44247 -7.2332,-2.62775 -7.8125,-1.11809 -1.39641,3.63899 -0.63025,8.18698 2.02778,12.03707 5.09082,7.3739 16.1074,19.42474 18.43215,20.16258 3.87895,1.23113 8.41345,9.4671 9.09022,16.51049 0.45348,4.71933 2.11747,8.96495 6.1239,15.62499 6.2518,10.39258 7.90242,13.8363 11.27335,23.5199 1.31628,3.78125 7.67252,20.375 14.12495,36.875 6.45244,16.5 13.24985,34.21875 15.10537,39.375 4.32195,12.01021 6.55397,16.98862 10.26238,22.88964 9.97832,15.87797 26.36172,58.11151 29.07245,74.94367 1.70107,10.56268 -1.23976,16.59469 -11.83192,24.26875 l -3.75,2.7169 7.07362,6.65302 c 4.93708,4.64351 7.48348,8.16325 8.43054,11.65302 0.79856,2.94261 1.35977,17.36788 1.36387,35.05725 0.009,36.87725 2.6045,71.05942 7.60642,100.15774 1.3203,7.68075 2.40055,15.94967 2.40055,18.37539 0,2.89265 0.7492,4.82967 2.17709,5.62876 2.60625,1.45852 1.16069,3.28086 -2.60254,3.28086 -4.25757,0 -3.44376,7.68471 1.55025,14.63876 5.57093,7.75735 7.6252,15.65004 7.6252,29.29649 0,8.59744 -0.63041,13.22708 -2.39847,17.61384 -9.99538,24.79972 -15.28434,36.42102 -17.89063,39.31056 -5.87209,6.51027 -14.96625,6.2012 -17.81019,-0.6053 -3.71852,-8.8997 -4.85911,-27.38173 -2.42636,-39.31685 0.52791,-2.58993 0.12138,-2.8125 -5.13761,-2.8125 -7.56741,0 -11.5454,-2.24501 -19.20435,-10.83816 -8.90006,-9.98564 -8.67084,-11.60833 3.2212,-22.80346 5.28197,-4.97244 11.75072,-10.13619 14.375,-11.47499 3.67245,-1.87355 4.77141,-3.17931 4.77141,-5.6693 0,-2.80636 -0.40466,-3.13355 -3.05337,-2.46876 -1.67935,0.42148 -4.45167,0.12923 -6.1607,-0.64944 -2.48294,-1.13131 -2.84738,-1.83203 -1.8137,-3.48723 0.94162,-1.50777 0.59233,-4.44042 -1.28364,-10.77755 -1.4175,-4.78836 -4.03384,-16.01861 -5.8141,-24.95611 -1.78025,-8.9375 -4.93481,-22.30815 -7.01014,-29.71255 -3.86251,-13.78084 -6.05271,-29.26165 -6.09214,-43.06052 l -0.0222,-7.77307 -7.00531,-5.17512 c -4.7621,-3.51798 -7.76999,-6.90379 -9.39329,-10.57353 -1.8974,-4.28941 -3.34715,-5.70855 -7.05718,-6.90817 -2.56807,-0.83039 -11.70047,-5.023 -20.29422,-9.31693 -8.59375,-4.29392 -18.71875,-8.79621 -22.5,-10.0051 -8.91455,-2.85001 -18.48523,-7.70786 -29.375,-14.91002 -19.45696,-12.86828 -35.29985,-17.65139 -54.98544,-16.60061 -6.88301,0.36739 -13.96211,1.23341 -15.73135,1.92446 -4.57067,1.78527 -20.36956,15.79696 -23.97322,21.26131 -10.38461,15.74656 -30.09615,50.9677 -32.655534,58.34985 -1.668492,4.8125 -5.110875,13.8125 -7.649739,20 -4.223113,10.29221 -4.485498,11.6159 -3.081918,15.5478 1.440355,4.03492 1.327122,4.46292 -1.851204,6.99724 l -3.3854,2.69942 4.983914,7.11476 c 3.453087,4.92945 5.24724,9.02939 5.841227,13.3482 0.471523,3.42838 1.717434,9.17173 2.76869,12.763 1.387188,4.73887 2.153604,15.95679 2.794633,40.90458 0.850861,33.11412 0.994071,34.58132 3.904301,40 2.60934,4.85844 3.07824,7.64191 3.4408,20.42506 0.23086,8.14004 0.0812,16.14883 -0.3325,17.7973 -1.18877,4.73644 -9.75563,8.48917 -17.331178,7.59195 -3.380175,-0.40032 -6.911055,-1.363 -7.8464,-2.13927 -2.741628,-2.27535 -4.483187,-0.857 -8.564083,6.9747 -4.305638,8.26301 -7.960313,10.94252 -18.762382,13.75611 -7.88385,2.05348 -10.318671,2.1146 -17.583217,0.4414 z M 348.55364,414.10687 c 2.7598,-1.35123 5.02871,-3.59563 5.75031,-5.68818 1.73836,-5.04103 -6.54845,-21.44868 -24.45339,-48.41704 -16.98612,-25.58441 -17.4698,-26.4735 -21.08162,-38.75165 -1.5168,-5.15625 -5.05803,-13.03125 -7.86939,-17.5 -8.94614,-14.22014 -12.86842,-21.70578 -20.86047,-39.8119 -4.29063,-9.72053 -8.34303,-17.33877 -9.00533,-16.92945 -0.6623,0.40933 -0.90224,1.53107 -0.5332,2.49279 0.36905,0.96171 -0.0695,1.74856 -0.9745,1.74856 -2.25326,0 -14.00701,12.59297 -21.1487,22.65874 -5.54701,7.81813 -5.87735,8.73925 -5.87735,16.38806 0,8.43327 -2.81447,14.72931 -8.93136,19.97964 -2.27553,1.95316 -2.35708,2.56476 -0.88488,6.63605 2.09939,5.80576 -0.30646,10.61638 -6.14708,12.29146 -4.77205,1.3686 -4.8458,1.78179 -1.36967,7.6734 2.17837,3.69204 2.4155,5.0723 1.29425,7.53316 -1.8166,3.987 0.33205,9.10674 5.72624,13.64434 2.23438,1.87956 4.0625,4.21114 4.0625,5.18126 0,0.97014 1.0465,1.76389 2.32556,1.76389 1.27907,0 4.51344,1.51442 7.1875,3.36539 2.67407,1.85096 15.83069,8.80563 29.23694,15.45481 13.57864,6.73469 31.57258,16.89941 40.625,22.94895 15.89351,10.6213 16.38295,10.84539 22.3101,10.21456 3.33306,-0.35472 8.1114,-1.64931 10.61854,-2.87684 z"
       id="path3424"
       inkscape:connector-curvature="0" />
    <path
       style="fill:#ad6faa"
       d="M 37.667346,733.65345 C 31.039901,732.3509 28.84208,729.7276 28.789754,723.05723 28.733316,715.86217 33.914556,708.26095 50.126751,691.75444 58.075229,683.66166 63.75,676.86669 63.75,675.44194 c 0,-1.34306 0.594873,-3.03681 1.321939,-3.76388 0.727066,-0.72706 1.646268,-4.46441 2.042673,-8.3052 0.70296,-6.81101 0.593677,-7.12761 -4.430678,-12.83557 -7.694808,-8.74177 -11.239263,-17.36317 -13.46017,-32.74 -1.066235,-7.38225 -4.14288,-20.05159 -6.836988,-28.15405 -3.927967,-11.81328 -5.287782,-18.46872 -6.863981,-33.5949 -2.39658,-22.99907 -2.041316,-29.69378 2.974276,-56.04834 5.679768,-29.84449 13.523764,-56.16881 23.232542,-77.96804 3.693962,-8.2941 4.099232,-10.52595 1.52312,-8.38797 -2.541792,2.1095 -6.493441,-3.41939 -8.339379,-11.66792 -2.00338,-8.95203 0.18235,-21.68496 4.931207,-28.72663 1.900738,-2.81844 5.454523,-8.78069 7.897302,-13.24944 2.442778,-4.46875 8.069326,-14.59375 12.503439,-22.5 11.007251,-19.62649 14.487165,-26.38675 24.731658,-48.04503 4.85707,-10.26851 10.13074,-20.39351 11.71926,-22.5 5.87455,-7.79001 9.48312,-15.49245 14.97083,-31.95497 6.10471,-18.31344 7.77729,-26.17971 9.03659,-42.5 1.10405,-14.30821 3.75698,-26.72216 7.42108,-34.72561 2.5409,-5.55005 3.95434,-7.0317 8.71832,-9.13904 3.12717,-1.38329 6.22591,-2.18126 6.88606,-1.77326 0.66016,0.408 2.5759,-0.15953 4.2572,-1.26117 2.51417,-1.64735 3.95364,-1.7615 8.10754,-0.64297 2.77783,0.74799 5.34218,1.83176 5.69855,2.40839 0.6029,0.9755 3.51977,0.80966 10.39511,-0.591 3.68184,-0.75008 3.58154,-3.81325 -0.3125,-9.54385 -3.314,-4.87699 -3.92409,-7.84008 -1.875,-9.10649 1.84622,-1.14103 1.51805,-10.59405 -0.61148,-17.61384 -3.91922,-12.919366 -1.5821,-27.253899 6.22203,-38.162185 11.17536,-15.620474 20.75326,-22.312754 31.96809,-22.336764 4.72291,-0.01013 6.33423,-0.670424 9.37111,-3.840232 4.62141,-4.823714 12.78271,-8.471783 21.15372,-9.455632 13.26509,-1.559051 31.2713,6.790644 45.31745,21.014239 C 314.86104,69.315224 317.61301,72.884055 316.7376,75 c -0.42665,1.03125 -1.21703,3.715821 -1.75639,5.965715 -0.53936,2.249894 -1.88078,5.464477 -2.98094,7.143521 C 310.90012,89.788279 310,92.501661 310,94.138974 c 0,2.74279 -3.20576,10.652166 -4.90875,12.111026 -1.62356,1.39083 -3.95861,10.16103 -3.27707,12.30835 0.88632,2.79257 -3.98701,12.01851 -11.32592,21.44165 -10.2511,13.16237 -10.50171,13.25586 -21.63897,8.07151 -7.51334,-3.49742 -8.80622,-2.93971 -8.81701,3.80349 -0.009,5.40985 15.5272,25.6939 21.01286,27.43497 3.9001,1.23786 8.95486,9.97985 8.95486,15.48708 0,4.90935 7.81974,22.23679 11.3739,25.20295 0.82223,0.6862 7.3761,16.79646 7.3761,18.13141 0,0.45651 5.58464,14.98558 12.4103,32.2868 6.82566,17.30124 14.23301,36.70991 16.4608,43.13039 2.22778,6.42048 5.97886,14.85797 8.33575,18.75 11.4586,18.92205 27.48292,59.6023 30.25275,76.80134 1.71071,10.62256 -0.69677,15.36131 -12.4596,24.52462 l -3.125,2.4344 7.07363,6.65802 c 4.9348,4.64486 7.48391,8.16986 8.43053,11.65802 0.80403,2.96274 1.36342,17.73288 1.37289,36.25 0.0166,32.42673 2.9118,72.30576 6.9516,95.75249 1.11324,6.46112 2.3116,14.84126 2.66303,18.62251 0.38362,4.12761 1.42558,7.49425 2.60738,8.42459 2.34144,1.84321 1.1073,3.45041 -2.64951,3.45041 -4.38501,0 -3.40464,7.57248 2.04291,15.77955 5.52574,8.32488 7.07117,14.71006 7.07232,29.22045 7.3e-4,9.28694 -0.5577,12.55871 -3.20029,18.75 -1.76065,4.125 -5.17271,12.28125 -7.58238,18.125 -2.40966,5.84375 -5.27013,12.51954 -6.35661,14.83508 -3.4259,7.30141 -13.00441,11.1585 -18.22699,7.33966 -4.73723,-3.46396 -7.99471,-28.33088 -5.40191,-41.23724 l 0.94169,-4.6875 -5.0968,0 c -7.71136,0 -12.61016,-2.67144 -19.74704,-10.76852 -8.98175,-10.19019 -8.77725,-11.70682 3.08414,-22.8731 5.28197,-4.97244 11.75072,-10.13619 14.375,-11.47499 3.67245,-1.87355 4.77141,-3.17931 4.77141,-5.6693 0,-2.80636 -0.40466,-3.13355 -3.05337,-2.46876 -4.1981,1.05366 -9.88798,-1.58238 -8.0905,-3.7482 0.97078,-1.16973 0.1311,-6.67522 -3.06814,-20.11632 -2.42259,-10.1782 -5.82914,-24.69331 -7.5701,-32.25581 -1.74096,-7.5625 -4.22896,-17.6875 -5.5289,-22.5 -2.1007,-7.77705 -3.78508,-23.82436 -3.89918,-37.14807 -0.0358,-4.17804 -0.74821,-5.17139 -7.04512,-9.82319 -4.7621,-3.51798 -7.76999,-6.90379 -9.39329,-10.57353 -1.89857,-4.29206 -3.34486,-5.70678 -7.05717,-6.90317 -2.56808,-0.82763 -11.13798,-4.76954 -19.04423,-8.7598 -7.90625,-3.99026 -19.17342,-8.98755 -25.03816,-11.10508 -5.86474,-2.11753 -14.11935,-5.95091 -18.34359,-8.51861 -4.22422,-2.5677 -11.69584,-7.10481 -16.60357,-10.08247 -13.30723,-8.07384 -24.5458,-11.60114 -39.40374,-12.3671 -19.27528,-0.99369 -25.00875,0.65235 -36.09993,10.36403 -5.03278,4.40683 -10.56066,10.12844 -12.28416,12.7147 -9.79727,14.70155 -30.14578,51.09673 -32.722711,58.52755 -1.654568,4.77112 -5.085558,13.73724 -7.624421,19.92474 -4.152784,10.12081 -4.468467,11.66384 -3.145112,15.37305 1.639704,4.59589 0.498574,7.03339 -3.954375,8.4467 -2.450152,0.77765 -2.452461,0.83895 -0.131317,3.48591 5.239895,5.97542 8.79511,13.08174 10.103481,20.19529 0.758603,4.12448 2.239884,11.43655 3.291736,16.24905 1.408392,6.44375 1.91818,16.4606 1.934164,38.00439 l 0.0217,29.25439 3.424855,6.99561 c 3.03039,6.18987 3.47465,8.70025 3.85725,21.79567 0.23782,8.14004 0.12068,16.04209 -0.26032,17.56012 -0.381,1.51802 -3.02277,4.06958 -5.87059,5.67016 -4.2379,2.38184 -6.311375,2.77587 -11.421875,2.17061 -3.434206,-0.40674 -7.009292,-1.37464 -7.944637,-2.15091 -2.741629,-2.27535 -4.483188,-0.857 -8.564084,6.9747 -4.305638,8.26301 -7.960313,10.94252 -18.762381,13.75611 -7.790429,2.02914 -8.840012,2.06025 -16.790872,0.4976 z M 348.55364,414.10687 c 7.95962,-3.89715 8.00559,-7.11292 0.32299,-22.59581 -3.65319,-7.36233 -10.62594,-19.29231 -15.495,-26.51106 -21.25267,-31.5087 -20.42523,-29.98656 -25.38637,-46.70071 -1.19594,-4.02914 -4.3358,-10.66978 -6.97748,-14.75697 -6.81779,-10.54845 -13.92377,-23.31001 -16.29513,-29.26429 -5.13664,-12.89763 -12.69589,-27.88309 -13.73984,-27.23789 -0.63428,0.392 -0.8513,1.49958 -0.48226,2.4613 0.40924,1.06646 -0.16703,1.78135 -1.47727,1.83262 -2.39948,0.0939 -15.4366,14.54403 -22.1531,24.55413 -3.85987,5.75263 -4.37018,7.44734 -4.37018,14.51306 0,8.32134 -2.84403,14.65022 -8.93136,19.87519 -2.27553,1.95316 -2.35708,2.56476 -0.88488,6.63605 2.09939,5.80576 -0.30646,10.61638 -6.14709,12.29146 -4.77205,1.3686 -4.8458,1.78179 -1.36966,7.6734 2.19064,3.71284 2.4191,5.06439 1.27906,7.5665 -1.8919,4.15226 0.0861,8.9779 5.51387,13.45193 2.35953,1.94492 4.29006,4.33903 4.29006,5.32022 0,0.9812 1.04181,1.784 2.31515,1.784 1.27333,0 4.22645,1.36831 6.5625,3.04069 2.33604,1.67237 15.49735,8.64681 29.24735,15.49876 13.75,6.85194 32.3125,17.32006 41.25,23.26249 15.86209,10.5465 16.39466,10.78928 22.3101,10.17061 3.33306,-0.34859 8.1114,-1.63815 10.61854,-2.86568 z"
       id="path3422"
       inkscape:connector-curvature="0" />
    <path
       style="fill:#9c489a"
       d="m 37.545388,733.53959 c -6.781354,-1.57071 -8.703617,-3.86345 -8.755634,-10.44309 -0.05464,-6.91059 5.923373,-15.6888 21.012922,-30.85575 13.261831,-13.32986 17.535186,-20.86665 17.63907,-31.10951 0.04376,-4.31451 -0.600039,-6.3363 -2.587241,-8.125 -8.398685,-7.55974 -12.68027,-17.80577 -16.159751,-38.671 -1.451188,-8.70228 -4.529528,-21.04629 -6.840755,-27.43116 -3.300312,-9.11725 -4.648252,-15.7174 -6.280329,-30.75148 -1.142954,-10.52845 -1.790413,-22.82925 -1.438798,-27.33512 0.677168,-8.67774 5.512954,-36.20745 8.863281,-50.45788 2.808391,-11.94533 12.719211,-41.89364 17.765688,-53.68399 4.931363,-11.52138 5.032723,-12.14987 1.824195,-11.31082 -1.84411,0.48225 -3.013476,-0.54831 -4.966886,-4.37731 -5.639256,-11.05387 -4.370841,-24.37889 3.532755,-37.11248 2.560341,-4.125 7.093181,-12 10.072979,-17.5 2.979797,-5.5 6.830057,-12.53125 8.556135,-15.625 12.875233,-23.07704 17.88324,-32.77274 24.756671,-47.92991 4.31606,-9.5177 10.75759,-21.59414 14.3145,-26.83651 5.18196,-7.63748 7.78102,-13.52297 13.07891,-29.61685 5.81972,-17.67905 6.8476,-22.40074 8.58001,-39.41349 3.53299,-34.6946 9.2214,-47.45324 21.15693,-47.45324 1.67431,0 4.63365,-0.82463 6.57632,-1.83249 3.54885,-1.84116 7.6209,-1.51302 12.37864,0.9975 1.375,0.72555 4.1875,1.17724 6.25,1.00374 9.26916,-0.77971 9.97494,-2.41741 4.82725,-11.20129 -2.66506,-4.5476 -3.02479,-6.06425 -1.875,-7.90536 1.94851,-3.12006 1.69376,-13.13024 -0.4883,-19.1871 C 184.10876,94.8573 189.13857,78.65849 204.09241,61.86055 210.6703,54.471484 219.94571,50 228.69534,50 c 3.92527,0 5.63942,-0.83529 8.97816,-4.375 2.26964,-2.40625 4.86637,-4.375 5.77054,-4.375 0.90415,0 2.90092,-0.823621 4.43726,-1.83027 4.8006,-3.145471 15.93299,-3.757985 23.52188,-1.294194 13.79154,4.47753 23.12816,10.443644 33.57863,21.456821 10.91883,11.506743 13.24685,14.819762 11.27156,16.040554 C 315.56403,76.048959 315,77.8618 315,79.651449 c 0,1.789648 -1.43458,5.70183 -3.18795,8.693736 -1.75338,2.991905 -2.8277,6.022727 -2.3874,6.73516 0.73695,1.192392 -2.55169,9.727765 -4.3036,11.169655 -1.70523,1.40347 -3.98219,10.18063 -3.24423,12.50575 0.47745,1.50433 -0.12837,3.86134 -1.52486,5.93261 -1.27437,1.89015 -3.14054,5.07266 -4.14701,7.07224 -1.00648,1.99959 -3.3859,5.30316 -5.28763,7.3413 -1.90172,2.03812 -4.42731,5.34714 -5.61241,7.35335 -2.98601,5.05494 -6.88451,5.69316 -14.53457,2.37949 -3.51744,-1.5236 -7.03143,-3.04417 -7.80886,-3.37903 -0.77744,-0.33487 -2.00107,1.07655 -2.71917,3.1365 -1.03236,2.96145 -0.85965,4.62013 0.82525,7.92494 3.21585,6.30771 15.03715,20.13507 18.83265,22.02854 4.36033,2.17522 10.09979,11.31672 10.09979,16.08635 0,5.03442 2.20716,11.1931 6.17957,17.24296 5.09023,7.75227 9.55357,16.83979 11.97178,24.375 1.21349,3.78125 6.14351,16.71875 10.95561,28.75 4.81209,12.03125 11.7067,30.1957 15.32134,40.36545 3.61464,10.16975 9.37766,23.3885 12.8067,29.375 9.51546,16.61231 11.31785,20.57873 18.55263,40.82778 12.431,34.79249 13.38781,40.98501 7.52107,48.67691 -1.96146,2.57167 -5.71467,6.23206 -8.34047,8.13418 l -4.77419,3.45841 7.1789,6.76863 c 9.66231,9.11012 10.12706,11.32572 10.12706,48.27828 0,32.31097 2.28803,65.03633 6.40538,91.61536 1.43775,9.28125 2.90373,19.6875 3.25775,23.125 0.354,3.4375 1.45501,7.17854 2.44668,8.3134 1.92363,2.2014 0.2759,4.41105 -2.16456,2.90276 -0.71762,-0.44351 -2.10224,-0.14455 -3.07692,0.66438 -1.51982,1.26133 -1.44118,2.34182 0.55227,7.58816 1.27844,3.36457 3.71645,7.77171 5.41779,9.79365 3.98964,4.74141 6.09484,16.23234 5.51681,30.11265 -0.37539,9.01441 -1.11096,12.0461 -4.85256,20 -2.42555,5.15625 -6.00948,13.59375 -7.96428,18.75 -4.63477,12.22535 -6.22883,14.6172 -11.36666,17.05525 -6.33994,3.0085 -11.83947,1.11906 -13.7674,-4.72996 -2.1694,-6.58159 -4.28415,-23.37597 -3.54619,-28.16218 0.35304,-2.28971 0.93537,-6.0612 1.29407,-8.38107 l 0.65218,-4.21795 -6.95402,-0.57669 c -4.25569,-0.35291 -8.26774,-1.55119 -10.33968,-3.08813 C 333.7737,667.76455 325,656.45094 325,653.58262 c 0,-3.40265 17.57205,-20.72011 23.55016,-23.20897 5.45955,-2.27296 6.25501,-3.32928 5.49623,-7.2986 -0.49117,-2.56939 -0.94047,-2.81831 -3.04963,-1.68953 -1.77407,0.94947 -3.48307,0.90568 -6.04335,-0.15482 -3.03082,-1.25541 -3.35686,-1.81953 -2.15961,-3.73664 1.0935,-1.75097 0.81244,-4.31937 -1.25174,-11.43852 -1.46404,-5.0493 -4.12669,-16.49304 -5.91701,-25.43054 -1.79031,-8.9375 -5.1946,-23.2506 -7.56509,-31.8069 -2.86285,-10.33353 -4.35551,-18.51766 -4.44562,-24.375 -0.0746,-4.84995 -0.4965,-12.17291 -0.9375,-16.27325 -0.76918,-7.15143 -1.05645,-7.64713 -7.05184,-12.16769 -3.52878,-2.66071 -7.61061,-7.24084 -9.375,-10.51942 -2.75219,-5.11412 -4.02369,-6.12952 -10.65794,-8.51122 -4.14311,-1.48738 -12.86186,-5.57682 -19.375,-9.08765 -6.51314,-3.51082 -14.93581,-7.28578 -18.71706,-8.38881 -8.21594,-2.39667 -21.15995,-8.89582 -30.9837,-15.55682 C 209.84683,432.6355 194.29504,427.5 176.73658,427.5 c -17.6619,0 -21.79807,1.46684 -33.43088,11.85585 -5.79998,5.17983 -11.87045,11.98095 -14.10765,15.80565 -2.15981,3.69242 -9.24474,15.7135 -15.74427,26.7135 -6.50163,11.00356 -13.10364,23.93594 -14.676937,28.75 -1.572788,4.8125 -3.273933,9.3125 -3.780324,10 -0.506391,0.6875 -1.629825,3.5 -2.496519,6.25 -0.866694,2.75 -2.120194,5.68664 -2.785555,6.52586 -1.209522,1.52559 -1.57701,8.24748 -0.768465,14.05639 0.329191,2.36505 -0.39553,3.48348 -3.11454,4.80654 -3.53801,1.72158 -3.539744,1.72851 -1.106639,4.41775 4.582912,5.06536 8.755309,13.94021 10.081378,21.44346 0.729021,4.125 2.1861,11.4375 3.237952,16.25 1.404487,6.42589 1.918225,16.42345 1.934164,37.6396 l 0.0217,28.88961 3.749995,8.27045 c 3.49512,7.70831 3.75,9.28429 3.75,23.18678 l 0,14.91632 -3.7868,3.18639 c -5.276109,4.43955 -11.106199,5.26746 -18.973192,2.6943 -7.462532,-2.44088 -7.974736,-2.1199 -12.285188,7.6985 -2.675075,6.09333 -6.410074,8.85919 -15.366716,11.37946 -8.975524,2.52558 -13.082675,2.79945 -19.542712,1.30318 z M 352.1875,411.66852 c 1.54687,-1.68186 2.8125,-4.1955 2.8125,-5.58585 0,-4.73312 -13.91049,-30.19451 -27.16603,-49.72393 -14.13805,-20.82965 -15.62655,-23.66208 -19.21666,-36.56697 -1.44306,-5.18718 -5.2275,-12.95098 -10.0242,-20.56473 -4.23825,-6.72734 -9.6598,-16.47738 -12.04789,-21.66678 -2.38807,-5.1894 -6.6095,-14.33824 -9.38092,-20.33076 -2.77143,-5.99253 -5.5555,-10.57625 -6.18684,-10.18606 -0.63135,0.39018 -0.84595,1.49628 -0.47691,2.458 0.39613,1.03228 -0.11875,1.74856 -1.25685,1.74856 -2.30225,0 -12.55873,10.95104 -20.8062,22.21517 -5.5145,7.53153 -5.9375,8.6408 -5.9375,15.57063 0,8.33901 -1.98525,13.47489 -7.57381,19.59357 -3.48268,3.81305 -3.67123,4.47313 -2.38823,8.36064 2.01413,6.10286 0.54006,9.10106 -5.8135,11.82451 l -5.5479,2.37812 3.35278,5.06637 c 2.93771,4.4392 3.15785,5.43058 1.77826,8.00837 -1.98969,3.71777 0.45835,11.49908 3.90089,12.39933 1.24865,0.32653 3.25942,2.33154 4.4684,4.45559 1.20896,2.12404 3.09808,3.86545 4.19806,3.8698 1.09997,0.004 4.24697,1.63564 6.99335,3.6251 2.74636,1.98945 15.34639,8.69626 28.00004,14.90401 12.65366,6.20775 31.32253,16.60616 41.48639,23.10759 l 18.47973,11.82076 7.77026,-1.86155 c 4.9418,-1.18392 8.79407,-2.97469 10.58278,-4.91949 z"
       id="path3420"
       inkscape:connector-curvature="0" />
    <path
       style="fill:#932091"
       d="M 38.75,733.63969 C 26.445456,731.2632 25.493074,721.87252 36.098971,707.5 c 1.77564,-2.40625 8.107002,-9.15625 14.06969,-15 12.758038,-12.50355 17.697412,-21.06305 17.67161,-30.62334 -0.01451,-5.3781 -0.607129,-6.87431 -4.241071,-10.70766 -7.808944,-8.23746 -11.126464,-16.24656 -14.353939,-34.65305 -1.641961,-9.36421 -4.924806,-22.67674 -7.29521,-29.5834 -3.33465,-9.71618 -4.774317,-16.8856 -6.362662,-31.68554 -2.335941,-21.76591 -2.118795,-26.36097 2.433557,-51.49701 5.378304,-29.69656 12.038822,-52.80669 22.430383,-77.82714 5.241599,-12.62054 5.448178,-13.87682 2.10752,-12.81653 -1.923369,0.61045 -2.961761,-0.24569 -4.89564,-4.03642 -5.646521,-11.0681 -4.352021,-24.7739 3.513025,-37.19491 9.291354,-14.67354 34.135834,-60.71384 41.605416,-77.10067 7.99571,-17.54105 8.25177,-18.01534 16.90862,-31.3197 3.82092,-5.87223 7.50282,-14.46692 12.16684,-28.40117 5.83626,-17.43648 6.93269,-22.33321 8.61035,-38.45462 2.03208,-19.527 4.7836,-33.54125 7.68825,-39.15823 3.00143,-5.80411 8.97959,-9.94061 14.36643,-9.94061 2.65667,0 5.17796,-0.5625 5.60286,-1.25 1.12244,-1.81614 7.70606,-1.53084 11.64197,0.5045 3.43154,1.77451 11.07973,1.91484 13.76924,0.25262 2.32133,-1.43465 1.71712,-5.40551 -1.62907,-10.70622 -2.91545,-4.61836 -2.98805,-5.15026 -1.2657,-9.27243 1.95147,-4.67053 1.62167,-8.69633 -1.53662,-18.75701 -2.2065,-7.0288 -1.44698,-19.487384 1.63824,-26.872534 2.77684,-6.646985 14.80035,-21.827974 20.1991,-25.503571 5.3808,-3.66338 12.64316,-5.878338 19.30673,-5.888384 3.81146,-0.0057 5.2102,-0.775669 7.96086,-4.381971 1.83534,-2.40625 4.14189,-4.375 5.12569,-4.375 0.98378,0 3.34217,-0.803325 5.24085,-1.785166 5.66648,-2.930255 14.98601,-3.443929 22.64102,-1.247928 11.37411,3.2629 21.21543,9.657785 33.55963,21.807044 l 11.65193,11.467925 -0.85428,5.191562 C 314.43662,83.598905 311.72077,90 309.92467,90 c -0.98448,0 -1.1873,1.415761 -0.62908,4.391321 0.61627,3.285017 0.35629,4.570727 -1.03196,5.103448 -1.02068,0.391671 -1.57769,1.436801 -1.23782,2.322511 0.33989,0.8857 -0.14126,2.38603 -1.06921,3.33405 -2.92029,2.98346 -5.04513,9.71853 -4.2773,13.55769 0.40635,2.03173 0.18404,4.03691 -0.49401,4.45598 -0.67805,0.41906 -2.59258,3.39399 -4.25449,6.61096 -1.66193,3.21698 -5.01771,8.05103 -7.45733,10.74234 -2.43959,2.69133 -4.76289,5.92439 -5.16287,7.1846 -1.19555,3.76686 -6.4441,4.20559 -13.54026,1.13184 -3.51744,-1.5236 -7.09065,-3.06689 -7.94046,-3.42953 -0.88817,-0.379 -2.10801,0.82113 -2.86896,2.82256 -2.08725,5.48989 -0.21161,8.90772 14.78293,26.93788 1.17214,1.40943 3.37799,3.05267 4.9019,3.65166 4.64344,1.82514 10.35425,10.88733 10.35425,16.43061 0,5.3442 1.83149,9.65725 9.74236,22.94278 2.88713,4.84864 6.862,13.56739 8.83306,19.375 1.97107,5.80761 8.3615,22.65305 14.20098,37.4343 5.83947,14.78125 11.58975,29.96875 12.77837,33.75 2.46052,7.82734 10.01875,23.8798 15.59679,33.125 7.81949,12.96024 24.90429,61.02576 25.28689,71.14087 0.29876,7.89863 -5.33546,16.35389 -13.80924,20.72347 -2.99521,1.54451 -2.99434,1.54618 4.5708,8.7675 10.00491,9.55018 10.92836,13.66637 9.81355,43.74316 -0.44998,12.1403 -0.25197,27.99396 0.44494,35.625 0.69066,7.5625 1.86024,21.0625 2.59905,30 0.73881,8.9375 2.49084,23.5625 3.8934,32.5 1.40255,8.9375 2.84636,18.78125 3.20847,21.875 0.36212,3.09375 1.51782,6.60937 2.56822,7.8125 1.75507,2.01024 1.6533,2.1875 -1.25585,2.1875 -6.94303,0 -6.49384,6.40606 1.27122,18.12916 4.33716,6.54793 5.84511,14.33548 5.8083,29.99584 -0.0199,8.4718 -0.56074,11.05064 -3.53891,16.875 -1.93346,3.78125 -5.20113,11.65625 -7.26149,17.5 -4.94957,14.03841 -8.21432,19.67393 -12.69131,21.90734 -9.62056,4.79937 -14.99851,-1.02811 -16.75666,-18.15734 -0.91761,-8.94005 -0.9113,-11.37374 0.052,-20.03362 l 0.90755,-8.15863 -4.83138,0.46074 c -6.9561,0.66337 -14.11815,-3.46105 -20.8081,-11.9828 -3.09178,-3.93838 -5.6218,-8.01764 -5.62222,-9.06501 -10e-4,-2.58939 18.31252,-20.43404 23.74921,-23.14109 5.30158,-2.63978 6.42584,-4.18005 5.44118,-7.45459 -1.04414,-3.47237 -1.3892,-3.68172 -3.36531,-2.04171 -1.31674,1.09281 -2.69523,1.0356 -5.72306,-0.2375 -3.33465,-1.40211 -3.6933,-1.92206 -2.18768,-3.1716 1.56026,-1.2949 1.4947,-2.47815 -0.49079,-8.85753 -1.26039,-4.04962 -4.28823,-16.86548 -6.72854,-28.4797 -2.4403,-11.6142 -5.8825,-25.86315 -7.64933,-31.66435 -2.80479,-9.20925 -5.20316,-28.75028 -5.51357,-44.92261 -0.044,-2.29331 -1.71239,-4.28937 -6.26876,-7.5 -4.09356,-2.88451 -7.17638,-6.36347 -9.04897,-10.21176 -2.54045,-5.2208 -3.63165,-6.12755 -10.34017,-8.59224 -4.125,-1.51551 -12.62755,-5.50615 -18.89455,-8.86807 -6.26701,-3.36194 -15.26701,-7.43001 -20,-9.04016 -10.5176,-3.57803 -19.11343,-7.87336 -30.88876,-15.43511 -11.64,-7.47485 -22.00187,-12.26787 -32.05945,-14.82956 -10.54215,-2.68511 -34.90207,-2.0339 -40.84618,1.09194 -5.55241,2.91985 -23.39075,20.64491 -26.05039,25.88496 -1.22132,2.40625 -7.56176,13.34985 -14.08987,24.31911 -6.52811,10.96927 -13.14744,23.62552 -14.709629,28.125 -1.562185,4.49949 -4.8644,13.1343 -7.338255,19.18848 -4.652121,11.38496 -5.423391,15.69193 -3.206937,17.90838 1.828138,1.82814 0.339462,4.8844 -3.154599,6.47641 l -2.976091,1.35599 5.544855,8.4422 c 3.240878,4.93433 5.544856,9.90147 5.544856,11.95414 0,1.93156 1.216352,7.58294 2.703006,12.55862 2.427412,8.12428 2.738443,12.44756 3.050574,42.40232 0.303323,29.1095 0.62968,33.88322 2.56368,37.5 4.21358,7.87981 5.06413,12.10935 5.2374,26.04412 l 0.17398,13.99215 -3.82886,3.5767 c -2.10587,1.96718 -5.667754,3.92167 -7.915287,4.34332 -4.448134,0.83446 -13.894065,-1.22034 -15.180812,-3.30234 -1.300455,-2.10418 -5.57173,2.62265 -8.657918,9.58134 -2.125399,4.7923 -3.932572,6.87257 -7.399574,8.51777 -4.426827,2.10067 -17.449177,5.90989 -19.244676,5.62933 C 44.76943,734.78771 41.84375,734.2372 38.75,733.63969 Z m 302.5,-316.80322 c 6.36186,-1.23626 12.5,-4.35634 12.5,-6.3539 0,-0.95291 0.6004,-1.73257 1.33424,-1.73257 3.86631,0 -8.75117,-24.88188 -24.72088,-48.75 -15.96112,-23.85529 -17.86556,-27.37171 -21.56467,-39.81786 -1.5027,-5.05608 -5.12194,-12.93108 -8.04273,-17.5 -7.50965,-11.74717 -13.92524,-23.52238 -16.78491,-30.80714 -4.33133,-11.03362 -11.6305,-25.625 -12.81863,-25.625 -0.63383,0 -1.15242,1.125 -1.15242,2.5 0,1.375 -0.76474,2.5 -1.6994,2.5 -2.05754,0 -13.19145,12.4169 -20.4881,22.849 -4.78451,6.84046 -5.3125,8.32481 -5.3125,14.93524 0,8.18628 -2.0569,13.26131 -7.84898,19.36595 -3.66083,3.85837 -3.75665,4.23362 -2.31211,9.05507 1.97198,6.58185 0.36309,9.5574 -6.11017,11.30047 -2.7383,0.73735 -4.97874,1.654 -4.97874,2.03698 0,0.383 1.0448,2.18945 2.32177,4.01433 3.25817,4.65614 3.7742,6.71171 2.36879,9.43587 -1.78747,3.4647 1.164,11.42563 4.8604,13.10982 1.64223,0.74824 3.63036,2.77498 4.41809,4.50386 0.78774,1.72887 2.07557,3.14341 2.86186,3.14341 0.7863,0 4.21164,1.77723 7.61186,3.94937 3.40023,2.17217 17.71348,9.72968 31.80723,16.79448 14.09375,7.0648 32.375,17.37031 40.625,22.90114 8.25,5.53082 15.84375,9.82781 16.875,9.54885 1.03125,-0.27895 3.84375,-0.88978 6.25,-1.35737 z"
       id="path3418"
       inkscape:connector-curvature="0" />
  </g>
</svg>
