<?xml version="1.0" encoding="UTF-8" standalone="no"?>
<!-- Created with Inkscape (http://www.inkscape.org/) -->

<svg
   xmlns:dc="http://purl.org/dc/elements/1.1/"
   xmlns:cc="http://creativecommons.org/ns#"
   xmlns:rdf="http://www.w3.org/1999/02/22-rdf-syntax-ns#"
   xmlns:svg="http://www.w3.org/2000/svg"
   xmlns="http://www.w3.org/2000/svg"
   xmlns:sodipodi="http://sodipodi.sourceforge.net/DTD/sodipodi-0.dtd"
   xmlns:inkscape="http://www.inkscape.org/namespaces/inkscape"
   id="svg3406"
   version="1.1"
   inkscape:version="0.91 r13725"
   width="258.03662"
   height="444.55334"
   viewBox="0 0 258.03662 444.55335"
   sodipodi:docname="silhouette-danse-51.svg">
  <title
     id="title3340">Silhouette Danse 51</title>
  <metadata
     id="metadata3412">
    <rdf:RDF>
      <cc:Work
         rdf:about="">
        <dc:format>image/svg+xml</dc:format>
        <dc:type
           rdf:resource="http://purl.org/dc/dcmitype/StillImage" />
        <dc:title>Silhouette Danse 51</dc:title>
        <cc:license
           rdf:resource="http://creativecommons.org/publicdomain/zero/1.0/" />
        <dc:date>2017-03-01</dc:date>
        <dc:creator>
          <cc:Agent>
            <dc:title>JLouis</dc:title>
          </cc:Agent>
        </dc:creator>
        <dc:rights>
          <cc:Agent>
            <dc:title>Domaine pubic</dc:title>
          </cc:Agent>
        </dc:rights>
        <dc:publisher>
          <cc:Agent>
            <dc:title>inkscape</dc:title>
          </cc:Agent>
        </dc:publisher>
        <dc:subject>
          <rdf:Bag>
            <rdf:li>Silhouette</rdf:li>
            <rdf:li>dance</rdf:li>
            <rdf:li>dancer</rdf:li>
            <rdf:li>woman</rdf:li>
            <rdf:li>danse</rdf:li>
            <rdf:li>danseuse</rdf:li>
            <rdf:li>femme</rdf:li>
          </rdf:Bag>
        </dc:subject>
        <dc:description>Silhouette of dancer - Silhouette de danseuse.</dc:description>
      </cc:Work>
      <cc:License
         rdf:about="http://creativecommons.org/publicdomain/zero/1.0/">
        <cc:permits
           rdf:resource="http://creativecommons.org/ns#Reproduction" />
        <cc:permits
           rdf:resource="http://creativecommons.org/ns#Distribution" />
        <cc:permits
           rdf:resource="http://creativecommons.org/ns#DerivativeWorks" />
      </cc:License>
    </rdf:RDF>
  </metadata>
  <defs
     id="defs3410" />
  <sodipodi:namedview
     pagecolor="#ffffff"
     bordercolor="#666666"
     borderopacity="1"
     objecttolerance="10"
     gridtolerance="10"
     guidetolerance="10"
     inkscape:pageopacity="0"
     inkscape:pageshadow="2"
     inkscape:window-width="1237"
     inkscape:window-height="756"
     id="namedview3408"
     showgrid="false"
     fit-margin-top="0"
     fit-margin-left="0"
     fit-margin-right="0"
     fit-margin-bottom="0"
     inkscape:zoom="1.2261285"
     inkscape:cx="120.93648"
     inkscape:cy="214.07808"
     inkscape:window-x="0"
     inkscape:window-y="0"
     inkscape:window-maximized="1"
     inkscape:current-layer="svg3406" />
  <g
     id="g3416"
     transform="translate(-4.5577643,-8.0804687)">
    <path
       style="fill:#ead9e7"
       d="m 129.02936,451.72013 c -4.94383,-1.4329 -6.2963,-5.17451 -8.7548,-24.22014 -0.81821,-6.33868 -0.92407,-9.82654 -0.3215,-10.59367 1.22945,-1.56523 0.23312,-14.53778 -1.67479,-21.80633 -0.84456,-3.2175 -4.10642,-12.21963 -7.24857,-20.00473 -3.14215,-7.7851 -6.17717,-16.0876 -6.74448,-18.45 -0.57336,-2.38757 -1.10148,-12.68949 -1.18909,-23.19527 -0.17726,-21.25731 -1.09325,-26.91736 -5.093478,-31.47337 -2.567538,-2.92426 -8.376035,-4.75683 -9.469478,-2.9876 -0.251654,0.40718 -0.85238,0.49632 -1.334944,0.19808 -0.482565,-0.29824 -1.80011,0.0624 -2.927879,0.80127 -1.127768,0.73895 -3.738854,1.84938 -5.802414,2.46764 -3.59125,1.07597 -3.848625,1.01976 -6.009933,-1.31233 -2.844165,-3.0689 -2.825938,-3.74193 0.368139,-13.59369 2.398562,-7.39808 2.668106,-9.54282 3.110502,-24.75 0.366175,-12.58712 0.859163,-17.63826 2.020305,-20.7 1.277621,-3.36886 1.493148,-6.69885 1.281513,-19.79999 -0.139933,-8.6625 -0.220344,-17.37 -0.178693,-19.35 0.04165,-1.98 0.334283,-13.62375 0.650292,-25.875 0.317716,-12.31745 0.227748,-22.275 -0.20126,-22.275 -1.647596,0 -3.051861,3.88755 -4.301013,11.90688 -0.714774,4.58871 -2.148255,11.17812 -3.185515,14.64312 -1.03726,3.465 -2.677325,9.44648 -3.644589,13.29218 -0.967265,3.84571 -3.026877,9.70472 -4.576917,13.02005 -1.55004,3.31533 -3.334483,7.45885 -3.965428,9.20782 -2.67174,7.40602 -8.853801,18.8855 -11.608056,21.55504 -4.251649,4.12085 -11.952477,6.04078 -18.213283,4.54081 -3.984665,-0.95465 -5.312339,-0.89334 -9.45,0.43634 -11.7761317,3.78437 -11.93723,3.81593 -14.0101191,2.74339 l -1.9961176,-1.03282 2.4461176,-2.73999 c 3.3979321,-3.80615 8.6813261,-6.56806 12.6225611,-6.59847 5.004657,-0.0386 20.676442,-4.01699 22.568301,-5.7291 1.076314,-0.97405 2.056955,-3.94636 2.787529,-8.44897 0.619891,-3.82046 1.660588,-8.97128 2.31266,-11.44628 0.652073,-2.475 1.448294,-7.5375 1.769381,-11.25 1.319621,-15.25787 3.78095,-27.48428 6.638103,-32.97412 2.376148,-4.56562 2.913041,-6.87106 3.648009,-15.6647 0.473991,-5.67115 1.315451,-13.50276 1.869912,-17.40358 0.851217,-5.9886 0.770163,-8.15965 -0.520808,-13.95 -2.492912,-11.18137 -0.736823,-24.837667 3.859032,-30.009893 0.758621,-0.85376 3.047039,-2.327549 5.085373,-3.275087 2.038334,-0.947538 6.898007,-3.226061 10.799272,-5.063387 3.901265,-1.837326 9.684212,-4.503094 12.850988,-5.92393 C 101.56561,70.924168 105.3,67.855015 105.3,64.768178 c 0,-1.384998 -0.38373,-2.653179 -0.85273,-2.81818 -0.469,-0.164999 -1.70349,-4.129495 -2.74332,-8.80999 -1.03984,-4.680495 -2.229618,-8.932994 -2.643951,-9.449999 -0.414342,-0.517005 -0.657927,-5.038851 -0.541305,-10.048545 0.232092,-9.970131 0.763686,-11.184272 8.540376,-19.50604 4.68646,-5.0149331 7.16259,-6.050892 14.17123,-5.9289409 8.88945,0.1546773 11.31437,0.8657327 12.68173,3.7186249 0.64858,1.353226 1.96738,2.882211 2.93066,3.397744 3.00764,1.609639 5.25913,7.405024 5.91032,15.213258 0.33578,4.026288 0.95621,7.534183 1.37874,7.795321 1.43144,0.884672 0.77823,5.480547 -1.00878,7.097774 -0.97736,0.884501 -1.99765,2.30331 -2.2673,3.152908 -0.26965,0.849598 -1.444,1.979271 -2.60967,2.510386 -1.8085,0.824005 -2.17709,1.763267 -2.51269,6.402855 -0.24417,3.375456 -0.96966,6.074079 -1.91331,7.116785 -0.88772,0.980929 -1.52,3.161297 -1.52,5.241617 0,3.214654 0.42817,3.881684 4.39061,6.839922 6.30638,4.708149 17.40954,11.50632 18.79277,11.50632 1.69142,0 5.53679,2.523132 9.4474,6.198876 4.45284,4.185396 6.95542,11.055226 7.90541,21.701126 0.74031,8.2961 2.71253,15.01043 9.38479,31.95 1.16984,2.97 2.40011,7.25992 2.73392,9.53317 0.33382,2.27323 1.56194,5.71573 2.72917,7.65 1.16723,1.93425 2.90738,4.93433 3.86702,6.66683 1.72855,3.1207 5.80446,15.78276 9.2707,28.8 0.98857,3.7125 2.34346,7.59415 3.01086,8.6259 0.6674,1.03175 2.30697,5.08175 3.64349,9 1.33651,3.91825 3.24782,8.01789 4.24736,9.11029 1.94475,2.12545 8.76535,3.93031 16.42649,4.34675 6.73043,0.36587 18.49682,2.09511 21.90785,3.21969 4.7292,1.55915 2.05212,3.07778 -5.07805,2.88065 -3.31639,-0.0917 -10.9242,0.67467 -16.90624,1.70303 -6.39737,1.09977 -12.17451,1.62623 -14.02854,1.27841 -5.37346,-1.00807 -10.30926,-6.19093 -22.8224,-23.96472 -1.21971,-1.7325 -3.25634,-5.3775 -4.52584,-8.1 -1.26951,-2.7225 -3.46091,-7.38 -4.86979,-10.35 -1.40888,-2.97 -3.24782,-7.83 -4.08652,-10.8 -0.83871,-2.97 -2.44683,-7.02 -3.5736,-9 -1.12678,-1.98 -2.31513,-4.815 -2.64078,-6.3 -0.8066,-3.67812 -8.02642,-16.90011 -9.49567,-17.38987 -1.30673,-0.43557 -1.20014,0.38759 1.18581,9.1565 1.92461,7.07341 4.22161,32.97975 3.96188,44.68337 -0.11535,5.1975 0.30867,12.69 0.94227,16.65 1.73566,10.84785 2.81565,32.60096 1.88785,38.02499 -0.44453,2.59875 -1.29751,7.05375 -1.89553,9.9 -0.59801,2.84625 -1.10426,8.82 -1.125,13.275 -0.035,7.5189 -0.18297,8.16374 -2.0627,8.98842 -2.24164,0.98346 -2.44602,1.93704 -1.14727,5.35299 0.83883,2.2063 1.18937,2.30859 7.91091,2.30859 8.25828,0 16.4936,1.93028 20.91136,4.90141 1.7325,1.16519 4.1625,2.40899 5.4,2.76399 1.2375,0.35502 6.77744,3.23053 12.31098,6.39005 10.34004,5.9039 12.59466,6.65887 13.42486,4.49539 0.67489,-1.75871 7.87468,-3.59258 11.37986,-2.89859 1.61387,0.31954 5.7693,2.46492 9.2343,4.76751 3.465,2.3026 7.3125,4.85373 8.55,5.66917 1.2375,0.81545 2.95875,1.74632 3.825,2.06861 2.92549,1.08841 1.18718,5.14246 -2.205,5.14246 -2.75853,0 -1.79779,2.33748 2.36159,5.74578 6.30123,5.16339 7.16268,10.28691 3.67989,21.88654 -3.26311,10.86798 -12.16148,14.11612 -12.16148,4.43925 0,-1.23571 -0.91125,-3.77776 -2.025,-5.649 -2.84061,-4.77255 -11.49168,-13.33122 -15.64082,-15.47373 -1.9163,-0.98953 -3.9832,-2.62575 -4.59311,-3.63606 -1.36633,-2.26326 -10.18728,-7.9914 -14.82723,-9.62846 -1.88644,-0.66558 -7.78003,-1.67029 -13.09687,-2.2327 -5.31683,-0.56241 -13.4578,-1.79411 -18.09104,-2.73709 -4.63323,-0.94299 -11.25728,-1.71453 -14.72008,-1.71453 -10.61497,0 -19.70274,-3.03776 -26.22836,-8.76734 -4.10173,-3.60137 -5.64687,-6.73666 -6.91842,-14.03846 -0.87983,-5.05235 -1.32741,-5.9942 -2.84853,-5.9942 -1.72808,0 -1.77754,0.37952 -1.16485,8.93967 0.40023,5.59194 0.22494,12.41685 -0.46809,18.225 -1.04262,8.7379 -0.98691,9.76288 0.94492,17.38533 1.77353,6.99783 2.13769,11.40654 2.67626,32.4 0.55542,21.65009 0.82251,24.74556 2.44927,28.38589 1.00423,2.24724 2.10527,5.35801 2.44676,6.91281 0.34149,1.55481 1.17829,3.28952 1.85955,3.85492 0.68126,0.56539 1.01651,1.60686 0.74502,2.31437 -0.2715,0.7075 0.91681,5.43664 2.6407,10.5092 6.68755,19.67825 7.15315,23.10388 3.28705,24.18473 -3.13899,0.87757 -12.50035,0.76392 -15.79776,-0.19178 z"
       id="path3430"
       inkscape:connector-curvature="0" />
    <path
       style="fill:#cb9bc8"
       d="m 131.85,452.30423 c -0.495,-0.19073 -2.00639,-0.59059 -3.35863,-0.88856 -3.29017,-0.72498 -4.82636,-3.97673 -6.45751,-13.66895 -2.69035,-15.98592 -3.06021,-19.65792 -2.09982,-20.84746 1.37585,-1.70412 0.17285,-15.69334 -2.01594,-23.44261 -1.02426,-3.62634 -4.04355,-11.92884 -6.70953,-18.45 -7.84628,-19.19249 -8.0123,-20.03906 -8.14952,-41.55666 -0.13839,-21.70222 -1.03025,-27.04483 -5.285115,-31.66017 -2.384703,-2.58673 -3.453876,-3.07124 -6.873938,-3.115 -2.572327,-0.0329 -5.856045,0.79819 -9,2.27788 -2.7225,1.28134 -5.511058,2.33367 -6.196796,2.3385 -1.502077,0.0106 -5.503204,-4.13293 -5.503204,-5.69906 0,-0.61331 1.167542,-4.74369 2.594537,-9.17862 2.34031,-7.27342 2.651456,-9.71785 3.175426,-24.94681 0.319488,-9.28581 1.01529,-17.99331 1.546225,-19.35 1.024418,-2.61768 2.747601,-12.64873 2.820145,-16.41671 0.02382,-1.2375 -0.391625,-7.515 -0.923222,-13.95 -0.578944,-7.00812 -0.65653,-13.50458 -0.193476,-16.2 1.08843,-6.33573 1.098677,-42.75 0.01203,-42.75 -1.551722,0 -2.674106,3.26363 -4.070553,11.83622 -0.753817,4.62758 -1.958987,10.43878 -2.678158,12.91378 -0.719169,2.475 -2.544714,8.88003 -4.056765,14.23339 -1.512051,5.35336 -3.600069,11.40126 -4.64004,13.43977 -1.039971,2.03852 -2.856914,6.27296 -4.037651,9.4099 -3.610135,9.59124 -9.095675,19.69419 -12.037107,22.16924 -3.476053,2.92491 -9.112728,4.60116 -14.41139,4.28571 -2.227499,-0.13262 -5.467499,-0.28566 -7.199999,-0.34008 -3.180688,-0.0999 -10.533228,1.55542 -14.068256,3.1673 -1.055041,0.48107 -3.1786262,0.59785 -4.7190773,0.25951 -2.4841321,-0.5456 -2.6488457,-0.76714 -1.4567431,-1.95924 0.7392395,-0.73924 1.3440741,-1.69043 1.3440741,-2.11374 0,-1.38274 9.6024313,-6.30177 12.3016913,-6.30177 4.650701,0 19.574396,-3.60813 21.898307,-5.29441 1.709993,-1.24079 2.507164,-3.0154 3.321499,-7.39411 0.589324,-3.16881 1.680085,-8.39397 2.423913,-11.61147 0.743829,-3.2175 1.600901,-8.4825 1.904607,-11.7 1.673407,-17.72831 3.397731,-26.63657 6.392793,-33.02669 2.228431,-4.75448 3.172482,-8.22461 3.550256,-13.05 0.28304,-3.61533 1.119546,-11.43331 1.858905,-17.37331 1.20514,-9.68208 1.199566,-11.48151 -0.05385,-17.38384 -1.756621,-8.27199 -1.772481,-14.55075 -0.05342,-21.150661 2.126842,-8.165494 3.31325,-9.331149 15.262468,-14.995487 12.591144,-5.968633 16.323871,-7.675193 19.406344,-8.87235 1.230066,-0.477729 3.957732,-2.126428 6.06148,-3.663775 2.98356,-2.18028 3.825,-3.371399 3.825,-5.414534 0,-1.440645 -0.39745,-2.754354 -0.88325,-2.919355 -0.48578,-0.164999 -1.67182,-4.071108 -2.63564,-8.680241 -0.96382,-4.609134 -2.136501,-8.861634 -2.60595,-9.45 -0.469449,-0.588367 -0.774648,-4.988394 -0.678231,-9.777837 0.158571,-7.876747 0.417708,-9.07963 2.714451,-12.6 2.65635,-4.071568 7.46334,-9.077135 11.28862,-11.7549772 1.6666,-1.1666749 3.88355,-1.5490097 8.55,-1.4745294 9.06359,0.1446621 11.48723,0.8442603 12.86204,3.7126946 0.64858,1.353226 2.0068,2.903307 3.01826,3.444624 2.78304,1.489438 5.21106,7.96496 5.85854,15.624722 0.31921,3.776132 0.9248,7.078563 1.34577,7.338736 2.42699,1.499964 -2.47056,11.588382 -6.10937,12.58465 -1.66169,0.454951 -1.97584,1.32902 -2.29842,6.394967 -0.27442,4.309815 -0.77901,6.094843 -1.90023,6.722311 -1.10053,0.615894 -1.52658,2.044744 -1.52658,5.119765 l 0,4.265443 6.92599,5.199184 c 3.80929,2.85955 10.64204,6.970806 15.18389,9.136123 5.76703,2.749418 9.20713,5.045912 11.40487,7.613468 3.9053,4.56246 6.98524,13.639469 6.98524,20.586449 0,6.04843 1.20041,10.43594 7.21693,26.37809 2.40781,6.38003 4.66146,13.51622 5.00812,15.8582 0.35522,2.39984 1.94327,6.31845 3.63885,8.97911 4.09659,6.42825 5.07019,8.95987 9.80561,25.49715 2.2565,7.88032 5.04814,16.2525 6.20362,18.60487 1.1555,2.35237 2.80641,6.5795 3.66872,9.39362 0.8623,2.81414 2.5017,5.99395 3.64312,7.06626 2.15966,2.02889 12.04546,4.41843 17.66721,4.2704 3.98107,-0.10483 16.629,1.75426 20.40567,2.99938 4.84967,1.59887 2.01987,3.07449 -5.52885,2.88305 -3.56345,-0.0904 -10.7315,0.61776 -15.929,1.57361 -11.50178,2.11525 -13.67733,2.151 -17.36969,0.28543 -4.09721,-2.07012 -6.49922,-4.42689 -11.81728,-11.59472 -11.13126,-15.00303 -14.38929,-21.10158 -20.91514,-39.15 -1.7003,-4.7025 -3.6165,-9.36 -4.25821,-10.35 -0.64172,-0.99 -1.68361,-3.42 -2.31533,-5.4 -1.4387,-4.50929 -8.06244,-17.27822 -9.6436,-18.59048 -1.62699,-1.35027 -1.57238,1.61826 0.12203,6.63402 2.62967,7.78428 5.1611,33.46971 4.77069,48.40646 -0.1229,4.7025 0.32471,11.9925 0.99472,16.2 0.67,4.2075 1.51647,13.31999 1.88104,20.24999 0.56597,10.75878 0.39546,14.04668 -1.1669,22.5 -1.00635,5.445 -1.85282,13.545 -1.88103,18 -0.0476,7.51244 -0.19819,8.16445 -2.0763,8.98842 -2.24164,0.98346 -2.44602,1.93704 -1.14727,5.35299 0.83883,2.2063 1.18937,2.30859 7.91091,2.30859 8.01152,0 16.34277,1.88774 20.08194,4.55026 1.4024,0.99859 3.78794,2.24724 5.3012,2.77476 1.51326,0.52753 7.39632,3.55021 13.07347,6.71706 10.68503,5.96039 12.76995,6.64733 13.60111,4.48135 0.65304,-1.70179 8.57574,-3.5373 12.01125,-2.78274 1.50539,0.33064 5.1694,2.39175 8.14226,4.58024 2.97285,2.18849 5.65525,3.97907 5.9609,3.97907 1.22659,0 8.37571,5.01334 8.40637,5.895 0.0505,1.45253 -1.94371,3.105 -3.74714,3.105 -2.78732,0 -1.78082,2.44771 2.42294,5.89238 6.25164,5.12274 7.06261,10.13248 3.55015,21.93069 -1.4759,4.95749 -5.45525,9.97693 -7.90957,9.97693 -2.1744,0 -4.18352,-2.61581 -4.18352,-5.44681 0,-4.93362 -8.1625,-15.33989 -16.2,-20.65319 -1.7325,-1.14529 -4.5675,-3.41095 -6.3,-5.03481 -7.94213,-7.44408 -15.46518,-10.30791 -30.6,-11.6486 -3.7125,-0.32887 -10.54083,-1.36714 -15.17407,-2.30727 -4.63323,-0.94012 -11.25728,-1.70932 -14.72008,-1.70932 -10.84053,0 -20.01258,-3.22488 -26.65763,-9.37279 -3.99461,-3.69575 -5.2438,-6.28166 -6.48915,-13.43301 -0.87983,-5.05235 -1.32741,-5.9942 -2.84853,-5.9942 -1.72918,0 -1.77768,0.3775 -1.15898,9.02178 0.41245,5.76247 0.24027,12.20336 -0.47657,17.82839 -1.05216,8.25608 -0.99226,9.3659 0.95799,17.75322 1.77154,7.61876 2.1648,12.41961 2.64957,32.34661 0.55307,22.73412 0.64229,23.60489 3.13534,30.6 1.41134,3.96 2.90718,7.58475 3.32409,8.055 0.41692,0.47025 0.75747,1.68525 0.75678,2.7 -9e-4,1.7292 3.65449,13.87966 6.9184,22.995 1.72664,4.82213 1.90749,9.53536 0.42283,11.02001 -1.00709,1.0071 -12.12473,1.9415 -14.08998,1.18423 z"
       id="path3428"
       inkscape:connector-curvature="0" />
    <path
       style="fill:#c184bc"
       d="m 129.53916,451.6564 c -4.3822,-1.17043 -5.76453,-3.94407 -7.55365,-15.15641 -0.82935,-5.1975 -1.84856,-11.475 -2.26493,-13.95 -0.4935,-2.93351 -0.42639,-4.90058 0.19275,-5.65073 1.3407,-1.62437 0.26258,-15.41158 -1.81021,-23.14927 -0.92822,-3.465 -4.40242,-13.02708 -7.72045,-21.24908 -7.01829,-17.39117 -8.0244,-23.15091 -7.18601,-41.13789 0.72481,-15.54999 -1.04822,-25.33459 -5.374773,-29.66114 -2.578446,-2.57844 -3.631329,-3.00735 -7.455104,-3.03697 -3.114115,-0.0241 -5.772631,0.66737 -8.843746,2.30029 -5.460394,2.90332 -6.174722,2.90129 -9.101915,-0.0259 -2.635235,-2.63523 -2.632399,-2.67939 0.889193,-13.8393 1.65607,-5.24808 2.247223,-9.65372 2.656787,-19.8 0.714963,-17.71206 1.029248,-21.45215 2.155398,-25.65 2.135922,-7.9619 2.742503,-13.94808 1.977667,-19.51706 -1.007001,-7.33226 -1.088346,-16.68428 -0.388009,-44.60794 0.397382,-15.84431 0.279467,-22.725 -0.389439,-22.725 -1.639874,0 -2.734555,3.10188 -4.121958,11.67997 -0.735658,4.54847 -2.33657,11.57745 -3.557581,15.61998 -1.221012,4.04253 -2.889924,9.97239 -3.708696,13.17747 -0.81877,3.20509 -2.603216,8.26759 -3.965434,11.25 -1.362218,2.98242 -3.011752,6.84008 -3.665631,8.57258 -0.653879,1.7325 -3.11015,7.23201 -5.45838,12.22114 -4.41646,9.38337 -7.891687,13.42356 -12.389405,14.40353 -1.323099,0.28828 -3.543436,0.88297 -4.934082,1.32155 -1.593277,0.50248 -4.179675,0.41626 -6.992922,-0.23312 -3.719109,-0.85847 -5.263554,-0.77864 -9.250656,0.47819 -2.632399,0.8298 -5.580834,1.50872 -6.552077,1.50872 -0.971243,0 -2.199146,0.43326 -2.728671,0.96278 -0.572726,0.57272 -2.2741817,0.71675 -4.199791,0.3555 -2.8219381,-0.5294 -3.0703284,-0.77396 -1.9370846,-1.9072 0.714963,-0.71496 1.6126191,-1.82259 1.9947911,-2.46139 1.2190551,-2.03767 8.8568125,-5.94969 11.6160675,-5.94969 4.675499,0 19.597354,-3.60268 21.928789,-5.29441 1.709993,-1.24079 2.507164,-3.0154 3.321499,-7.39411 0.589324,-3.16881 1.680085,-8.39397 2.423913,-11.61147 0.743829,-3.2175 1.600901,-8.4825 1.904607,-11.7 1.639324,-17.36723 3.444894,-26.64308 6.433109,-33.04916 2.568321,-5.50591 3.159754,-8.05045 3.86999,-16.65 0.461096,-5.58296 1.307428,-13.14161 1.880736,-16.79701 0.883063,-5.63038 0.803498,-7.87603 -0.520578,-14.6929 -2.032573,-10.4645 -1.400808,-18.924232 1.920151,-25.712023 2.648096,-5.412517 0.273196,-3.94978 25.395715,-15.641602 3.123532,-1.453665 6.566031,-2.988451 7.65,-3.410634 1.083969,-0.422184 3.692106,-2.025437 5.79586,-3.562784 3.02576,-2.211127 3.825,-3.358164 3.825,-5.489533 0,-1.481896 -0.37283,-2.694355 -0.82849,-2.694355 -0.45567,0 -1.08491,-1.31625 -1.39832,-2.925 -1.68692,-8.659256 -2.56146,-12.186878 -3.625705,-14.625 -0.746469,-1.710109 -1.108836,-5.721264 -0.988389,-10.94072 0.169749,-7.356352 0.463887,-8.660253 2.740784,-12.15 2.66662,-4.087041 7.4699,-9.091045 11.30012,-11.7723362 1.66659,-1.1666749 3.88354,-1.5490097 8.55,-1.4745294 9.06358,0.1446621 11.48723,0.8442603 12.86203,3.7126946 0.64858,1.353226 2.0068,2.903307 3.01826,3.444624 2.78304,1.489438 5.21106,7.96496 5.85855,15.624722 0.3192,3.776132 0.92479,7.078563 1.34576,7.338736 2.47648,1.530552 -2.48247,11.487682 -6.20961,12.468313 -1.78103,0.468602 -2.025,1.11245 -2.025,5.344269 0,3.448705 -0.50982,5.459615 -1.8,7.099811 -1.17791,1.49748 -1.79999,3.651105 -1.79999,6.231535 0,3.865433 0.13653,4.045706 6.92252,9.139791 3.80739,2.858121 10.28526,6.801547 14.39526,8.763171 4.11,1.961624 8.83217,4.760181 10.49369,6.219027 4.76404,4.182876 7.87977,12.218883 8.68494,22.399923 0.68531,8.66533 2.39735,14.62694 8.82807,30.74059 1.49029,3.7343 3.00437,8.75511 3.36461,11.15736 0.68819,4.5892 1.46635,6.45729 4.52613,10.86568 2.81628,4.05759 5.20352,10.42507 8.93684,23.83734 1.86009,6.6825 4.7218,15.39 6.35937,19.35 1.63756,3.96 3.64851,9.08076 4.46877,11.37948 1.08103,3.02951 2.27258,4.5654 4.33058,5.5821 2.79834,1.38243 12.4003,3.14767 16.78921,3.08656 3.52784,-0.0491 16.33121,1.90773 19.65785,3.00449 4.84967,1.59887 2.01987,3.07449 -5.52885,2.88305 -3.56345,-0.0904 -10.7315,0.61776 -15.929,1.57361 -11.52907,2.12027 -13.68777,2.15264 -17.36969,0.26054 -3.83933,-1.97299 -7.4388,-5.68631 -13.39611,-13.81983 -9.66771,-13.19932 -12.91246,-19.39699 -19.31876,-36.9 -1.72117,-4.7025 -3.64986,-9.36 -4.28596,-10.35 -0.6361,-0.99 -1.6789,-3.42 -2.31733,-5.4 -1.57697,-4.8908 -6.5887,-14.79524 -8.88044,-17.55 l -1.87182,-2.25 -0.03,2.5039 c -0.0165,1.37715 0.54582,3.88192 1.24954,5.56615 2.77799,6.64865 5.66412,37.94416 4.37159,47.40304 -0.4489,3.28521 -0.49895,6.83069 -0.1112,7.87887 2.19454,5.93242 4.64229,39.10727 3.39389,45.99803 -0.40356,2.2275 -1.38678,7.40642 -2.18493,11.50871 -1.00663,5.17382 -1.263,9.36844 -0.8369,13.69276 0.60636,6.15354 0.58278,6.2484 -1.82545,7.34567 -2.07142,0.9438 -2.36023,1.50912 -1.91311,3.74474 0.28965,1.44822 0.52663,2.93014 0.52663,3.29317 0,0.36303 4.42476,0.86977 9.83279,1.1261 l 9.83281,0.46606 11.99219,5.91694 c 6.59572,3.25431 15.3143,7.754 19.37464,9.9993 7.10552,3.92923 7.42787,4.01749 8.59368,2.35307 0.66619,-0.95111 3.1444,-2.21607 5.50715,-2.81101 5.29431,-1.33312 9.54992,-0.2461 13.98535,3.57231 1.68774,1.45296 4.11774,3.16127 5.4,3.79625 4.96919,2.46076 9.91714,5.78854 9.94852,6.69093 0.0505,1.45253 -1.94371,3.105 -3.74714,3.105 -2.72946,0 -1.82473,2.05624 2.7709,6.2976 5.50481,5.08045 6.39308,8.88645 4.18085,17.91368 -2.60645,10.63581 -7.34924,15.78854 -11.26809,12.24203 -0.99418,-0.89974 -1.80363,-2.77356 -1.80363,-4.17532 0,-4.8945 -8.99057,-16.23015 -16.72761,-21.09083 -1.44232,-0.90611 -4.45223,-3.31729 -6.68871,-5.35818 -6.8536,-6.25425 -14.18,-9.21627 -25.63368,-10.36356 -5.445,-0.54542 -13.89251,-1.77327 -18.77225,-2.72854 -4.87974,-0.95528 -11.79248,-1.73688 -15.36165,-1.73688 -10.35049,0 -20.15176,-3.46291 -26.46788,-9.35143 -3.9998,-3.72901 -5.24523,-6.31123 -6.48915,-13.45437 -0.88206,-5.06517 -1.32509,-5.9942 -2.85848,-5.9942 -1.73646,0 -1.78717,0.36636 -1.17715,8.50292 0.38444,5.12767 0.21104,12.3621 -0.43683,18.22499 -1.00258,9.07297 -0.93948,10.29295 0.94513,18.27209 1.69681,7.18402 2.11629,12.28849 2.62567,31.95 0.58718,22.66463 0.68668,23.62627 3.16639,30.6 1.40809,3.96 2.90127,7.58475 3.31818,8.055 0.41692,0.47025 0.75802,1.72168 0.75802,2.78096 0,1.05928 1.215,5.43252 2.7,9.71831 1.485,4.28579 2.7,8.60753 2.7,9.60385 0,0.99633 0.80437,3.52833 1.78749,5.62669 2.22714,4.75358 1.45339,8.85235 -1.84502,9.77349 -3.14931,0.87949 -10.65895,0.74816 -14.4033,-0.25189 z"
       id="path3426"
       inkscape:connector-curvature="0" />
    <path
       style="fill:#bc83bb"
       d="m 130.00928,451.68709 c -4.86474,-1.09587 -6.16928,-3.56506 -8.02377,-15.1871 -0.82935,-5.1975 -1.84497,-11.4642 -2.25696,-13.92601 -0.52363,-3.12898 -0.42248,-4.94224 0.3361,-6.02526 2.4186,-3.45304 -1.4477,-24.82731 -6.6456,-36.73923 -9.49793,-21.7662 -11.03361,-29.01598 -10.20143,-48.1595 0.69047,-15.88368 -1.06285,-25.61523 -5.395733,-29.94811 -2.578446,-2.57844 -3.631329,-3.00735 -7.455104,-3.03697 -3.114115,-0.0241 -5.772631,0.66737 -8.843746,2.30029 -5.508609,2.92896 -6.392666,2.91536 -9.112166,-0.14021 -2.46313,-2.76751 -2.438193,-3.14803 0.899444,-13.725 2.001094,-6.34146 3.422275,-22.56028 3.19885,-36.50597 -0.03221,-2.01078 0.560043,-5.13651 1.31613,-6.94609 0.756086,-1.80957 1.392479,-4.82188 1.414206,-6.69403 0.02173,-1.87215 0.572989,-4.8979 1.225027,-6.72388 0.652039,-1.82598 0.858734,-3.64848 0.459322,-4.05 C 79.759429,225.00947 78.485423,203.42216 79.260766,198 c 1.103869,-7.71964 1.016242,-43.2 -0.106693,-43.2 -1.475259,0 -3.290504,5.27931 -4.01722,11.68336 -0.364076,3.20833 -1.642515,9.08083 -2.840974,13.05 -1.19846,3.96915 -2.970034,10.37987 -3.936832,14.24607 -0.966798,3.86618 -2.744126,9.13118 -3.949618,11.7 -1.205491,2.5688 -3.017411,6.78426 -4.026486,9.36767 -3.725331,9.53747 -9.845976,21.46456 -12.076806,23.53366 -1.263524,1.17192 -4.861969,2.84192 -7.996542,3.71112 -4.684136,1.29887 -6.537283,1.40867 -10.404512,0.61648 -3.95318,-0.8098 -5.431575,-0.7027 -9.249032,0.67004 -2.499058,0.89864 -4.77786,1.39979 -5.064003,1.11364 -0.286143,-0.28614 -1.65529,0.0667 -3.042549,0.78407 -1.518112,0.78505 -3.6065453,1.08747 -5.2457161,0.75964 -2.3644887,-0.4729 -2.5534137,-0.7147 -1.4334627,-1.83465 0.7094797,-0.70948 1.6026493,-1.81262 1.9848213,-2.45142 1.204368,-2.01312 8.8419195,-5.94969 11.5433155,-5.94969 5.286417,0 20.644691,-3.8043 22.611358,-5.60093 1.382623,-1.26307 2.267878,-3.68389 3.005815,-8.21971 0.5753,-3.53614 1.586142,-8.45435 2.246317,-10.92935 0.660174,-2.475 1.654828,-9.11054 2.210342,-14.74565 1.545712,-15.67963 3.153522,-23.46519 6.184719,-29.94852 1.855226,-3.96808 2.946928,-7.96559 3.308308,-12.11411 0.296651,-3.40545 1.160727,-11.1258 1.92017,-17.15633 1.276771,-10.13851 1.263747,-11.55454 -0.172869,-18.79435 -2.065498,-10.40907 -1.39269,-18.831835 2.040518,-25.544944 2.512112,-4.912043 2.56893,-4.95372 13.759695,-10.092793 22.851018,-10.493748 24.7784,-11.452951 26.76217,-13.318799 2.04834,-1.926583 2.8171,-6.808921 1.16272,-7.384506 -0.47424,-0.164999 -1.53408,-3.742499 -2.35518,-7.949999 -0.8211,-4.2075 -1.9949,-8.46 -2.608442,-9.45 -0.719604,-1.161144 -1.059867,-4.89067 -0.958698,-10.508079 0.142263,-7.899185 0.393093,-9.069602 2.70031,-12.6 3.27483,-5.011011 11.0511,-12.3491023 13.82403,-13.0450616 1.18499,-0.2974128 5.452,-0.3147359 9.48227,-0.038496 5.79707,0.3973402 7.51577,0.8417999 8.22786,2.1277486 0.49507,0.894023 2.20079,2.86361 3.79048,4.376862 3.8739,3.687617 5.56775,8.078303 6.25558,16.215303 0.3153,3.73003 0.9177,6.994741 1.33867,7.254914 2.47648,1.530552 -2.48247,11.487682 -6.20961,12.468313 -1.78103,0.468602 -2.025,1.11245 -2.025,5.34427 0,3.448704 -0.50982,5.459614 -1.8,7.09981 -1.19747,1.522345 -1.79999,3.651105 -1.79999,6.359541 0,4.039864 0.0537,4.110432 6.97435,9.164524 3.83589,2.801321 10.31375,6.687146 14.39525,8.635166 4.0815,1.94802 8.78035,4.735447 10.44187,6.194293 4.76404,4.182876 7.87977,12.218883 8.68494,22.399923 0.68415,8.6507 2.36757,14.52144 8.80343,30.70097 1.47675,3.7125 2.97052,8.85152 3.31947,11.42005 0.38968,2.86816 1.71936,6.34071 3.44623,9 4.30416,6.62818 5.69482,10.11521 9.73843,24.41887 2.05411,7.26609 5.07352,16.45108 6.7098,20.41108 1.63627,3.96 3.63555,9.05296 4.44283,11.31768 0.90545,2.54015 2.39217,4.65565 3.88059,5.52185 2.32987,1.35588 12.64508,3.26201 17.2628,3.18996 2.919,-0.0455 14.76057,1.8091 19.23948,3.01333 5.51941,1.48398 2.68142,3.09047 -5.11048,2.89286 -3.56345,-0.0904 -10.7315,0.61776 -15.929,1.57361 -11.52907,2.12027 -13.68777,2.15264 -17.36969,0.26054 -3.83933,-1.97299 -7.4388,-5.68631 -13.39611,-13.81983 -9.66771,-13.19932 -12.91246,-19.39699 -19.31876,-36.9 -1.72117,-4.7025 -3.64986,-9.36 -4.28596,-10.35 -0.6361,-0.99 -1.6789,-3.42 -2.31733,-5.4 -1.57697,-4.8908 -6.5887,-14.79524 -8.88044,-17.55 l -1.87182,-2.25 -0.03,2.45678 c -0.0165,1.35123 0.54783,3.98373 1.254,5.85 2.81492,7.43935 5.65712,38.2557 4.3803,47.49322 -0.48643,3.5192 -0.38431,6.96733 0.29319,9.9 1.67998,7.27205 3.02506,20.86378 3.11736,31.49999 0.0951,10.96608 -0.43681,16.25971 -2.44189,24.3 -0.95509,3.82988 -1.17261,7.42154 -0.74809,12.35252 0.59085,6.86302 0.5684,6.96626 -1.74313,8.01947 -2.37886,1.08388 -2.74769,2.32128 -1.77442,5.95301 0.50023,1.8666 1.05899,2.025 7.14341,2.025 3.6304,0 8.72942,0.45653 11.33116,1.0145 4.29384,0.92086 32.62466,14.64747 35.85816,17.3737 2.51784,2.12283 4.4055,2.301 5.64406,0.53272 0.65631,-0.93703 3.12646,-2.19047 5.48921,-2.78541 5.29431,-1.33312 9.54992,-0.2461 13.98535,3.57232 1.68774,1.45295 4.11774,3.16126 5.4,3.79624 4.96919,2.46076 9.91714,5.78854 9.94852,6.69093 0.0505,1.45253 -1.94371,3.105 -3.74714,3.105 -2.23047,0 -2.03373,2.38915 0.35276,4.28381 7.72661,6.13422 8.88711,9.59065 6.5985,19.65291 -2.43804,10.7192 -7.29361,16.113 -11.2676,12.51659 -0.99198,-0.89776 -1.80363,-2.75761 -1.80363,-4.13299 0,-5.15254 -7.6474,-14.86367 -16.39384,-20.81789 -1.97745,-1.34618 -5.29678,-4.01589 -7.37629,-5.93271 -6.3846,-5.88513 -13.95753,-8.95797 -24.82987,-10.07515 -5.1975,-0.53407 -13.7025,-1.7632 -18.9,-2.7314 -5.1975,-0.96821 -12.22266,-1.76101 -15.61148,-1.76177 -9.9546,-0.002 -20.62513,-3.75073 -26.5403,-9.32342 -4.00702,-3.775 -5.2472,-6.35197 -6.48915,-13.48378 -0.88206,-5.06517 -1.32509,-5.9942 -2.85848,-5.9942 -1.73646,0 -1.78717,0.36636 -1.17715,8.50292 0.38444,5.12767 0.21104,12.3621 -0.43683,18.22499 -1.00218,9.06934 -0.93894,10.29615 0.94186,18.27209 1.69047,7.16879 2.1214,12.40285 2.66754,32.4 0.62266,22.79949 0.75638,24.1275 3.03566,30.15 1.31137,3.465 2.78572,7.00325 3.27633,7.86279 0.4906,0.85953 0.892,2.31347 0.892,3.23096 0,0.9175 1.215,5.17473 2.7,9.46052 1.485,4.28579 2.7,8.60753 2.7,9.60385 0,0.99633 0.80437,3.52833 1.78749,5.62669 2.22714,4.75358 1.45339,8.85235 -1.84502,9.77349 -3.06365,0.85556 -9.61493,0.75156 -13.93318,-0.2212 z"
       id="path3424"
       inkscape:connector-curvature="0" />
    <path
       style="fill:#b671b3"
       d="m 130.00928,451.68709 c -2.51006,-0.56544 -4.08439,-1.58364 -5.06936,-3.27862 -1.39794,-2.40563 -3.96034,-15.40831 -4.6829,-23.76295 -0.19999,-2.31246 -0.5741,-4.54504 -0.83135,-4.96129 -0.25727,-0.41626 0.0194,-1.66691 0.61462,-2.77924 1.63944,-3.06333 0.16047,-16.35155 -2.9339,-26.3603 -1.44444,-4.67208 -4.49776,-12.9497 -6.78512,-18.3947 -6.71742,-15.99057 -7.17087,-18.39557 -6.98683,-37.0569 0.20603,-20.89086 -1.13696,-29.01562 -5.520806,-33.39945 -2.56968,-2.56969 -3.62556,-2.99913 -7.446851,-3.02873 -3.114115,-0.0241 -5.772631,0.66737 -8.843746,2.30029 -5.508609,2.92896 -6.392666,2.91536 -9.112166,-0.14021 -2.46313,-2.76751 -2.438193,-3.14803 0.899444,-13.725 1.976258,-6.26275 3.420234,-22.22533 3.272829,-36.17982 -0.01934,-1.83141 0.561532,-5.02109 1.29084,-7.08816 0.729307,-2.06708 1.34379,-5.22616 1.365517,-7.02017 0.02173,-1.79402 0.572989,-4.75584 1.225027,-6.58182 0.652039,-1.82598 0.858734,-3.64848 0.459322,-4.05 C 79.759429,225.00947 78.485423,203.42216 79.260766,198 c 1.103869,-7.71964 1.016242,-43.2 -0.106693,-43.2 -1.449095,0 -3.286262,5.24109 -3.97853,11.35 -0.342797,3.02499 -1.633363,8.89749 -2.867927,13.05 -1.234563,4.1525 -3.055841,10.79 -4.047283,14.75 -0.991443,3.96 -2.934001,9.63 -4.316795,12.6 -1.382795,2.97 -3.248657,7.2225 -4.146361,9.45 -4.942766,12.26463 -9.461679,20.65684 -12.26952,22.78609 -4.52159,3.42882 -11.977696,5.07861 -17.676513,3.91122 -3.891296,-0.79712 -5.39382,-0.68583 -9.195093,0.68109 -2.499058,0.89864 -4.77786,1.39979 -5.064003,1.11364 -0.286143,-0.28614 -1.65529,0.0667 -3.042549,0.78407 -1.518112,0.78505 -3.6065453,1.08747 -5.2457161,0.75964 -2.3644887,-0.4729 -2.5534137,-0.7147 -1.4334627,-1.83465 0.7094797,-0.70948 1.6026493,-1.81262 1.9848213,-2.45142 1.204368,-2.01312 8.8419195,-5.94969 11.5433155,-5.94969 5.243747,0 20.644482,-3.80412 22.588656,-5.5796 1.305438,-1.19217 2.276963,-3.72581 2.979301,-7.76972 0.573201,-3.30037 1.61709,-8.43067 2.319753,-11.40067 0.702663,-2.97 1.718083,-9.855 2.256491,-15.3 1.513229,-15.30354 3.094547,-22.88192 6.103357,-29.25 1.881105,-3.98132 2.938857,-7.86243 3.311345,-12.15 0.301026,-3.465 1.168683,-11.23408 1.928126,-17.26461 1.276771,-10.13851 1.263747,-11.55454 -0.172869,-18.79435 -2.065498,-10.40907 -1.39269,-18.831835 2.040518,-25.544944 2.512112,-4.912043 2.56893,-4.95372 13.759695,-10.092793 22.851018,-10.493748 24.7784,-11.452951 26.76217,-13.318799 2.04834,-1.926583 2.8171,-6.808921 1.16272,-7.384506 -0.47424,-0.164999 -1.53408,-3.742499 -2.35518,-7.949999 -0.8211,-4.2075 -2.0088,-8.479425 -2.63933,-9.493167 -0.776916,-1.249079 -1.063746,-4.669542 -0.889902,-10.612043 0.22851,-7.811401 0.526734,-9.182482 2.731192,-12.556833 3.8296,-5.861918 11.04365,-12.2241548 14.62197,-12.8954513 1.71452,-0.3216458 6.00321,-0.3464759 9.53041,-0.055178 4.83181,0.3990386 6.63503,0.9234917 7.31312,2.1269553 0.495,0.878528 2.14457,2.820962 3.66571,4.316521 3.96065,3.894027 5.71144,8.335881 6.3737,16.170432 0.31889,3.772403 0.92422,7.071782 1.34519,7.331955 1.36939,0.846334 0.80806,4.542193 -1.00788,6.636 -0.97531,1.124536 -2.00232,2.766242 -2.28226,3.648236 -0.27993,0.881995 -1.50695,1.854107 -2.72671,2.160247 -2.01103,0.504736 -2.21776,1.005103 -2.21776,5.368099 0,3.448705 -0.50982,5.459615 -1.8,7.099811 -1.19747,1.522345 -1.79999,3.651105 -1.79999,6.359541 0,4.039864 0.0537,4.110432 6.97435,9.164524 3.83589,2.801321 10.31375,6.687146 14.39525,8.635166 4.0815,1.94802 8.78035,4.735447 10.44187,6.194293 4.76404,4.182876 7.87977,12.218883 8.68494,22.399923 0.68415,8.6507 2.36757,14.52144 8.80343,30.70097 1.47675,3.7125 2.97664,8.89607 3.33309,11.51906 0.42143,3.10116 1.67388,6.29338 3.58114,9.12756 4.11074,6.10853 7.79102,16.15679 12.21604,33.35338 0.57318,2.2275 2.39587,7.29 4.05042,11.25 1.65455,3.96 3.66879,9.05296 4.47607,11.31768 0.90545,2.54015 2.39217,4.65565 3.88059,5.52185 2.28209,1.32808 12.36917,3.21671 17.2628,3.23217 3.26922,0.0103 14.844,1.78613 19.08415,2.92788 5.66148,1.52448 2.94117,3.13636 -4.95515,2.9361 -3.56345,-0.0904 -10.7315,0.61776 -15.929,1.57361 -11.7873,2.16775 -14.1376,2.16837 -17.68617,0.004 -4.634,-2.82554 -6.50651,-4.68609 -11.38663,-11.31379 -10.61423,-14.41522 -15.83037,-24.15675 -21.40351,-39.97267 -1.49761,-4.25003 -3.23202,-8.53733 -3.85426,-9.52733 -0.62223,-0.99 -2.05404,-4.37207 -3.18179,-7.51571 -2.08444,-5.81038 -7.50345,-15.80521 -9.10643,-16.7959 -1.30467,-0.80634 -1.06937,3.52789 0.40273,7.41839 2.84831,7.52759 5.65999,37.52541 4.40933,47.04322 -0.5217,3.97022 -0.4264,7.15138 0.29658,9.9 0.58591,2.2275 1.10779,5.67 1.15973,7.65 0.0519,1.98 0.45796,5.21999 0.90229,7.19999 0.97654,4.35162 1.31253,25.23793 0.50674,31.5 -0.31848,2.475 -1.18504,6.93 -1.92571,9.9 -0.95508,3.82988 -1.17261,7.42154 -0.74808,12.35252 0.59085,6.86302 0.5684,6.96626 -1.74313,8.01947 -2.37887,1.08388 -2.74769,2.32128 -1.77443,5.95301 0.50023,1.8666 1.059,2.025 7.14341,2.025 3.6304,0 8.72943,0.45653 11.33116,1.0145 4.29385,0.92086 32.62467,14.64747 35.85817,17.3737 2.46591,2.07904 4.40488,2.30015 5.60037,0.63861 0.6323,-0.87878 3.09317,-2.13499 5.46861,-2.79158 5.32301,-1.4713 9.53372,-0.41545 14.13102,3.54341 1.7325,1.4919 4.1625,3.2266 5.4,3.85488 5.55101,2.81827 9.88671,5.69388 9.89307,6.56148 0.0108,1.4661 -1.98077,3.105 -3.77307,3.105 -2.23047,0 -2.03373,2.38915 0.35276,4.28381 7.73163,6.13822 8.90862,9.64313 6.59627,19.64289 -1.59975,6.9181 -4.80764,12.51513 -7.69888,13.43278 -2.55454,0.81077 -5.37015,-1.83129 -5.37015,-5.03916 0,-5.08128 -7.64037,-14.8553 -16.14024,-20.64757 -1.83796,-1.25249 -4.84126,-3.73356 -6.67398,-5.51348 -1.83273,-1.77992 -6.25803,-4.69422 -9.83401,-6.47621 -5.44165,-2.71171 -8.04259,-3.39691 -15.95177,-4.20233 -5.1975,-0.52927 -13.6218,-1.75396 -18.72068,-2.72152 -5.09888,-0.96757 -12.12405,-1.75921 -15.61149,-1.75921 -17.94793,0 -33.0549,-10.45075 -33.1751,-22.95 -0.0356,-3.70081 -1.10273,-5.85 -2.90472,-5.85 -1.72057,0 -1.77323,0.38451 -1.16457,8.50292 0.38444,5.12767 0.21104,12.3621 -0.43683,18.22499 -1.00278,9.07475 -0.93974,10.2914 0.94673,18.27209 1.70135,7.19758 2.12114,12.32255 2.65387,32.4 0.60698,22.87568 0.73079,24.10737 3.0308,30.15 1.31889,3.465 2.79938,7.00325 3.28999,7.86279 0.4906,0.85953 0.892,2.31347 0.892,3.23096 0,0.9175 1.215,5.17473 2.7,9.46052 1.485,4.28579 2.7,8.56953 2.7,9.51943 0,0.94989 0.78291,3.5535 1.73979,5.78582 2.14083,4.99437 1.4364,8.79571 -1.79732,9.69878 -3.06365,0.85556 -9.61493,0.75156 -13.93318,-0.2212 z"
       id="path3422"
       inkscape:connector-curvature="0" />
    <path
       style="fill:#a851a5"
       d="m 130.00928,451.68709 c -2.51338,-0.56619 -4.08113,-1.58139 -5.06307,-3.27862 -2.58284,-4.46434 -6.17257,-29.8855 -4.52111,-32.0169 2.29233,-2.95852 -2.29699,-26.46971 -7.34337,-37.62029 -8.33801,-18.42378 -11.13001,-31.154 -9.84123,-44.87129 1.28039,-13.62798 -0.96128,-27.53293 -5.191759,-32.20412 -2.343582,-2.58772 -3.271248,-2.9698 -7.479224,-3.08051 -3.436237,-0.0904 -5.674328,0.40267 -7.861662,1.73203 -1.681822,1.02214 -4.272858,2.08842 -5.757858,2.36952 -2.227714,0.4217 -3.056807,0.0564 -4.739824,-2.08815 l -2.039824,-2.59926 2.354773,-7.93975 c 1.295126,-4.36686 2.504169,-8.54726 2.686763,-9.28976 0.369068,-1.50077 1.433999,-24.65601 1.374202,-29.87982 -0.02096,-1.83141 0.558589,-5.02109 1.287897,-7.08816 0.729307,-2.06708 1.34379,-5.22616 1.365517,-7.02017 0.02173,-1.79402 0.611796,-4.86871 1.311266,-6.83267 0.718337,-2.01692 0.918323,-3.78926 0.459563,-4.07278 -1.213274,-0.74985 -2.58775,-22.38861 -1.747383,-27.50953 0.87807,-5.35067 1.086582,-43.04733 0.242776,-43.89114 -1.294906,-1.29491 -3.0379,3.20857 -4.343212,11.2218 -0.754588,4.63236 -1.960389,10.44748 -2.679559,12.92248 -0.71917,2.475 -2.543188,8.87441 -4.053375,14.22091 -1.510187,5.34651 -3.686049,11.62401 -4.835249,13.95 -1.149201,2.326 -2.617778,5.64659 -3.263504,7.37909 -2.308533,6.19385 -8.437591,19.39445 -10.139685,21.83858 -3.52309,5.05899 -13.011269,8.16 -20.360757,6.65447 -3.877306,-0.79425 -5.399178,-0.69638 -8.806189,0.56635 -2.265351,0.83959 -4.468135,1.31065 -4.895076,1.04679 -0.426941,-0.26387 -1.974528,0.1399 -3.439082,0.89725 -1.639992,0.84807 -3.7089381,1.16777 -5.3862521,0.83231 -2.3644887,-0.4729 -2.5534137,-0.7147 -1.4334627,-1.83465 0.7094797,-0.70948 1.6026493,-1.79843 1.9848213,-2.41989 1.4858511,-2.41619 8.0830695,-5.52816 12.8448575,-6.05907 9.222461,-1.0282 19.305594,-3.62637 21.310466,-5.49117 1.370885,-1.2751 2.279619,-3.75684 3.021704,-8.25223 0.58368,-3.53581 1.592073,-8.25124 2.240873,-10.47874 0.6488,-2.2275 1.433063,-7.0875 1.742807,-10.8 1.349364,-16.17307 3.324886,-26.50868 6.366532,-33.30868 2.060855,-4.60732 3.198096,-8.76127 3.572731,-13.05 0.302262,-3.46023 1.170931,-11.2254 1.930374,-17.25593 1.276473,-10.13614 1.263534,-11.55561 -0.171248,-18.78619 -2.039222,-10.27664 -1.347795,-18.789865 2.076529,-25.56736 2.47713,-4.902784 2.520017,-4.934283 13.722063,-10.078537 22.851018,-10.493748 24.7784,-11.452951 26.76217,-13.318799 2.04834,-1.926583 2.8171,-6.808921 1.16272,-7.384506 -0.47424,-0.164999 -1.53408,-3.742499 -2.35518,-7.949999 -0.8211,-4.2075 -2.0088,-8.479425 -2.63933,-9.493167 -0.772866,-1.242569 -1.064538,-4.642498 -0.895113,-10.434012 0.221382,-7.567745 0.546111,-9.063162 2.726683,-12.556833 3.66748,-5.875966 10.9498,-12.3827557 14.63169,-13.0734823 5.43113,-1.0188863 15.81852,0.2537434 16.84353,2.0636133 0.495,0.874037 1.98577,2.649079 3.31283,3.944536 4.04595,3.949614 6.08299,8.936973 6.71788,16.44762 0.32367,3.829032 0.93292,7.174743 1.35389,7.434916 1.36939,0.846334 0.80806,4.542193 -1.00788,6.636 -0.97531,1.124536 -2.00232,2.766242 -2.28226,3.648237 -0.27993,0.881994 -1.50695,1.854106 -2.72671,2.160246 -2.01103,0.504736 -2.21776,1.005103 -2.21776,5.368099 0,3.448705 -0.50982,5.459615 -1.8,7.099811 -1.19601,1.520488 -1.79999,3.651105 -1.79999,6.349694 0,3.963032 0.14708,4.171928 6.07499,8.627747 3.34125,2.511509 10.23201,6.643389 15.31279,9.181954 13.89978,6.944891 17.84326,12.913282 19.15384,28.989072 0.63785,7.82397 1.42207,10.92349 5.39074,21.30595 2.55437,6.6825 5.37023,15.2767 6.25749,19.09822 0.88725,3.82153 2.45246,8.27653 3.47825,9.9 3.9317,6.22257 6.27482,11.24671 7.67261,16.45178 3.26521,12.15888 6.8927,23.51301 9.44854,29.57416 1.49029,3.53421 3.40348,8.37208 4.25154,10.75082 1.00313,2.81372 2.35737,4.74166 3.87557,5.5174 2.29094,1.17059 12.75514,3.01533 17.18363,3.02932 3.26922,0.0103 14.844,1.78613 19.08415,2.92788 5.66148,1.52448 2.94117,3.13636 -4.95515,2.9361 -3.56345,-0.0904 -10.7315,0.61776 -15.929,1.57361 -11.87557,2.18399 -14.13073,2.1725 -17.84326,-0.091 -4.46625,-2.72296 -5.17333,-3.43012 -10.76702,-10.76834 -10.64174,-13.96064 -17.47406,-26.82785 -22.6997,-42.75 -1.13721,-3.465 -2.586,-7.11 -3.21954,-8.1 -0.63355,-0.99 -1.99566,-4.06991 -3.02693,-6.84423 -2.29931,-6.18566 -6.80421,-14.62076 -8.60792,-16.1177 -1.12264,-0.93171 -1.33563,-0.73501 -1.33563,1.23351 0,1.28809 0.58068,3.86893 1.2904,5.7352 2.69585,7.08898 5.39513,34.49999 4.45529,45.24322 -0.70297,8.03565 -0.73454,7.12032 0.49679,14.4 2.21873,13.11728 2.71557,18.02096 2.82679,27.89999 0.12919,11.47627 -0.4439,17.47212 -2.4776,25.9212 -0.95189,3.95464 -1.17927,7.5213 -0.75123,11.78357 0.62023,6.17603 -0.10137,8.23221 -3.25835,9.28454 -0.70395,0.23465 -0.84413,1.44778 -0.4253,3.68036 l 0.62478,3.33033 6.97012,0 c 3.83358,0 9.18148,0.58105 11.88422,1.29123 4.81627,1.26553 29.15312,13.14064 33.99243,16.58654 3.54361,2.52327 7.37166,2.89507 7.37166,0.71597 0,-0.71425 1.96606,-1.6779 4.82026,-2.36261 5.74699,-1.37869 9.34669,-0.48643 13.95973,3.46022 1.66649,1.42574 5.81676,4.15971 9.22283,6.07546 3.40607,1.91575 6.19382,3.90844 6.19502,4.42819 0.004,1.46864 -1.98759,3.105 -3.77784,3.105 -0.891,0 -1.62,0.57858 -1.62,1.28572 0,1.4355 1.05088,2.61904 5.25132,5.91428 3.93092,3.08379 5.10127,7.68152 3.76205,14.77915 -1.30957,6.94043 -4.26577,12.8243 -7.39275,14.71416 -2.27488,1.37487 -2.54675,1.36202 -4.275,-0.20203 -1.25122,-1.13234 -1.84562,-2.78474 -1.84562,-5.13077 0,-1.90327 -0.33043,-3.46051 -0.73427,-3.46051 -0.40385,0 -1.68602,-1.72125 -2.84926,-3.825 -2.36035,-4.26874 -6.73775,-8.65789 -12.20755,-12.24029 -2.0026,-1.31159 -5.1518,-3.85327 -6.99823,-5.64818 -1.84643,-1.79491 -6.28294,-4.72148 -9.85892,-6.50347 -5.44165,-2.71171 -8.04259,-3.39691 -15.95177,-4.20233 -5.1975,-0.52927 -13.6218,-1.75396 -18.72068,-2.72152 -5.09888,-0.96757 -12.12405,-1.75921 -15.61149,-1.75921 -17.94793,0 -33.0549,-10.45075 -33.1751,-22.95 -0.0356,-3.70081 -1.10273,-5.85 -2.90472,-5.85 -1.72057,0 -1.77323,0.38451 -1.16457,8.50292 0.38444,5.12767 0.21104,12.3621 -0.43683,18.22499 -1.00278,9.07475 -0.93974,10.2914 0.94673,18.27209 1.69512,7.17118 2.12751,12.39621 2.68124,32.4 0.63275,22.85865 0.76198,24.13057 3.10905,30.6 1.34687,3.7125 2.81505,7.13475 3.26262,7.605 0.44756,0.47025 0.81375,1.9122 0.81375,3.20435 0,1.29214 1.00053,4.90236 2.22337,8.02271 1.22286,3.12034 2.62475,7.84456 3.11531,10.49825 0.49056,2.65368 1.4955,5.99206 2.2332,7.41862 1.79892,3.47873 0.7167,7.53661 -2.22941,8.35937 -3.06365,0.85556 -9.61493,0.75156 -13.93318,-0.2212 z"
       id="path3420"
       inkscape:connector-curvature="0" />
    <path
       style="fill:#932091"
       d="m 132.75,452.25766 c -0.495,-0.16512 -2.00863,-0.54457 -3.36362,-0.84324 -1.35499,-0.29865 -3.07991,-1.48359 -3.83314,-2.63317 -2.92179,-4.45922 -6.93512,-30.13178 -5.0658,-32.40508 1.04982,-1.27669 -0.27559,-15.16305 -2.14488,-22.47207 -0.7379,-2.88524 -3.93607,-11.79524 -7.10702,-19.8 -3.17096,-8.00476 -6.17661,-16.17411 -6.67922,-18.15411 -1.53215,-6.03573 -2.04929,-15.83886 -1.21068,-22.95 1.36946,-11.61253 -1.2223,-27.19299 -5.238687,-31.49254 -2.211219,-2.36713 -3.263868,-2.7788 -7.368362,-2.88163 -3.134049,-0.0785 -5.876976,0.45806 -7.938594,1.55298 -1.7325,0.92014 -3.555,1.776 -4.05,1.90192 -0.495,0.12592 -1.772206,0.48879 -2.838236,0.80639 -1.447557,0.43125 -2.082796,0.12198 -2.50926,-1.2217 -0.314064,-0.98952 -1.126103,-2.01214 -1.804533,-2.27247 -1.407388,-0.54007 -0.767166,-4.37902 2.198374,-13.1821 1.596256,-4.73841 3.114586,-23.7875 2.821782,-35.40229 -0.04772,-1.89279 0.513685,-4.87851 1.247557,-6.63491 0.733874,-1.7564 1.3387,-4.46026 1.344058,-6.00855 0.0054,-1.54831 0.611839,-4.79983 1.347735,-7.22561 0.909069,-2.99662 1.048191,-4.7597 0.433978,-5.49978 -1.256632,-1.51415 -2.537177,-22.15465 -1.692477,-27.28024 0.852212,-5.17117 1.030567,-42.82992 0.206748,-43.65374 -1.274508,-1.2745 -3.022577,3.14432 -4.259576,10.76749 -2.343969,14.44501 -7.847657,32.51658 -15.174722,49.82679 -9.245961,21.84359 -10.950009,24.1196 -20.201498,26.98206 -4.014506,1.24211 -5.643522,1.31789 -9.929911,0.46199 -4.397013,-0.87798 -5.726004,-0.79648 -9.327756,0.57208 -2.310099,0.87777 -4.412762,1.38336 -4.672584,1.12354 -0.259821,-0.25982 -1.696417,0.16056 -3.192435,0.93418 -1.689604,0.87373 -3.7517464,1.20024 -5.4434581,0.8619 -2.3644887,-0.4729 -2.5534137,-0.7147 -1.4334627,-1.83465 0.7094797,-0.70948 1.6026493,-1.7964 1.9848213,-2.41539 1.3209918,-2.13955 9.1263055,-5.98572 12.1472585,-5.98572 6.000405,0 19.957995,-3.59758 21.995423,-5.66935 2.079929,-2.11498 5.15556,-14.83219 6.682417,-27.63064 2.885475,-24.1867 3.693322,-28.4246 6.692575,-35.10868 2.073983,-4.62204 3.206464,-8.74757 3.582297,-13.05 0.302262,-3.46023 1.183276,-11.31708 1.957808,-17.45967 1.314249,-10.42291 1.302427,-11.67255 -0.177129,-18.72288 -2.443308,-11.64279 -0.765103,-22.995166 4.327241,-29.272057 0.697548,-0.859807 3.657476,-2.634025 6.577617,-3.942708 6.211502,-2.78373 16.566885,-7.564495 24.209347,-11.176718 2.97,-1.403775 6.311254,-3.403964 7.425004,-4.444863 2.11811,-1.979568 2.71306,-6.174364 1.10393,-7.783493 -0.50659,-0.506588 -1.07431,-1.701338 -1.2616,-2.655 -0.18729,-0.953663 -0.86063,-4.366432 -1.4963,-7.583932 -0.63567,-3.2175 -1.649511,-6.4575 -2.252979,-7.2 -0.737883,-0.90788 -1.010997,-4.166184 -0.833949,-9.949148 0.24876,-8.12517 0.441711,-8.878094 3.500608,-13.659914 1.78053,-2.783421 4.05362,-5.319846 5.05131,-5.6365 0.99768,-0.316655 1.8267,-1.054693 1.84225,-1.640086 0.0156,-0.585393 1.12931,-1.874351 2.475,-2.864351 2.0593,-1.5149843 3.85682,-1.7991342 11.35209,-1.7945309 7.89494,0.00485 9.01822,0.205125 9.9,1.7651429 0.54705,0.96782 2.12403,2.935905 3.50439,4.373522 4.01782,4.184446 5.89471,8.828129 6.56706,16.247819 0.34429,3.799433 0.97411,7.123209 1.39959,7.386169 1.5024,0.928531 0.74587,4.624137 -1.47531,7.206892 -1.23689,1.438241 -2.24939,2.927417 -2.25,3.30928 -6e-4,0.381862 -1.0136,1.155621 -2.2511,1.719464 -1.98047,0.902366 -2.25,1.586268 -2.25,5.709331 0,3.321388 -0.52368,5.349914 -1.8,6.972494 -1.19034,1.51328 -1.79999,3.651105 -1.79999,6.311923 0,3.801023 0.26136,4.220861 4.72499,7.589699 5.95101,4.491412 12.16094,8.516787 15.075,9.771854 14.89463,6.415016 19.45838,12.926219 20.73597,29.584441 0.59838,7.80227 1.33658,10.71756 5.36726,21.1965 2.5704,6.6825 5.39937,15.2767 6.28663,19.09822 0.88725,3.82153 2.45183,8.27653 3.47684,9.9 5.16114,8.1745 6.50668,11.75144 12.30214,32.70366 1.10325,3.98854 2.66536,8.52714 3.47136,10.08579 0.80601,1.55864 2.72168,6.3056 4.25706,10.54882 2.14961,5.94075 3.33904,7.99156 5.17216,8.91784 2.63743,1.33271 12.81947,3.2784 16.33058,3.12063 2.00562,-0.0901 12.681,1.34527 16.2,2.17822 0.7425,0.17575 2.70628,0.63665 4.36396,1.02423 5.35759,1.25264 1.6443,2.54924 -8.12953,2.83866 -5.10644,0.15121 -11.30943,0.70016 -13.78443,1.21988 -13.41305,2.81661 -15.98879,2.329 -22.55358,-4.26955 -10.383,-10.43637 -21.32471,-29.20228 -27.58559,-47.31145 -1.56018,-4.51272 -3.34419,-9.01495 -3.96447,-10.00495 -0.62028,-0.99 -1.97154,-4.06991 -3.00281,-6.84423 -2.29931,-6.18566 -6.80421,-14.62076 -8.60792,-16.1177 -1.12018,-0.92967 -1.33563,-0.74601 -1.33563,1.13857 0,1.23587 0.57244,3.86951 1.27209,5.85251 3.01316,8.54023 5.49768,36.70467 4.22732,47.92085 -0.30836,2.7225 -0.0873,7.38 0.49128,10.35 3.90092,20.02508 4.21595,36.97998 0.97829,52.64999 -0.56252,2.7225 -1.05115,8.7152 -1.08587,13.31711 -0.0623,8.26083 -0.3951,9.23202 -3.5421,10.33793 -0.44495,0.15636 -0.53868,1.72516 -0.2083,3.48623 l 0.60068,3.20194 9.20831,0.50247 c 9.39504,0.51266 15.08663,1.9852 19.39277,5.01731 1.32854,0.93547 3.42803,2.00106 4.66553,2.36796 1.91665,0.56826 12.39729,6.05561 21.83167,11.4304 2.77923,1.58333 5.16833,1.32266 5.16833,-0.56389 0,-0.61049 2.16912,-1.63033 4.82026,-2.26633 5.74699,-1.37869 9.34669,-0.48643 13.95973,3.46022 1.66649,1.42574 5.81676,4.15971 9.22283,6.07546 3.40607,1.91575 6.19382,4.01011 6.19502,4.65412 9e-4,0.644 -1.44881,1.77718 -3.22222,2.51815 -2.85183,1.19157 -3.0858,1.52424 -2.025,2.87908 0.65966,0.84251 1.80688,1.99652 2.54938,2.56447 4.25642,3.25575 5.65772,5.11282 6.42083,8.5092 1.63512,7.27738 -2.83417,20.66615 -7.78256,23.31445 -2.26907,1.21436 -2.55043,1.15462 -4.20916,-0.89383 -1.19856,-1.48016 -1.61925,-2.98675 -1.29154,-4.62532 0.30229,-1.51144 0.005,-2.82891 -0.785,-3.48499 -0.69907,-0.58018 -2.29201,-2.79703 -3.53987,-4.92633 -2.40355,-4.10136 -8.9361,-10.0403 -13.76102,-12.51055 -1.59407,-0.81614 -3.3075,-2.24845 -3.80761,-3.18292 -1.47039,-2.74744 -12.24254,-9.02186 -17.83156,-10.38628 -2.83938,-0.69318 -8.40251,-1.53049 -12.36251,-1.86072 -3.96,-0.33022 -10.99083,-1.37326 -15.62407,-2.31787 -4.63323,-0.94461 -11.47458,-1.71747 -15.20297,-1.71747 -11.81599,0 -24.14819,-5.04425 -29.42339,-12.03509 -2.12426,-2.81513 -3.56259,-7.04427 -4.55389,-13.38991 -0.41496,-2.65627 -0.92813,-3.375 -2.40976,-3.375 -1.82246,0 -1.86243,0.27385 -1.25262,8.58131 0.37291,5.08027 0.19698,12.69935 -0.43124,18.67499 -0.99419,9.45694 -0.93217,10.63308 0.98305,18.6437 1.72197,7.20229 2.14564,12.23849 2.68784,31.95 0.61619,22.40179 0.74829,23.68795 3.0966,30.15 1.34912,3.7125 2.81913,7.13475 3.2667,7.605 0.44756,0.47025 0.81375,1.9122 0.81375,3.20435 0,1.29214 1.02848,4.95739 2.28551,8.145 1.25703,3.1876 2.52763,7.61815 2.82356,9.84565 0.29593,2.2275 1.27066,5.59971 2.16606,7.4938 2.90498,6.14504 -0.23995,9.6902 -8.45872,9.53515 -2.07152,-0.0391 -4.1714,-0.20616 -4.6664,-0.37128 z"
       id="path3418"
       inkscape:connector-curvature="0" />
  </g>
</svg>
